<svg width="17" height="18" viewBox="0 0 17 18" fill="none" xmlns="http://www.w3.org/2000/svg">
<path fill-rule="evenodd" clip-rule="evenodd" d="M2.7998 9.00025C2.7998 8.65613 3.07877 8.37717 3.42288 8.37717L12.2605 8.37717L8.80641 5.08784C8.55836 4.84933 8.55062 4.4549 8.78913 4.20685C9.02764 3.9588 9.42208 3.95106 9.67013 4.18957L14.2394 8.55111C14.3615 8.66859 14.4306 8.83076 14.4306 9.00025C14.4306 9.16973 14.3615 9.33191 14.2394 9.44938L9.67013 13.8109C9.42208 14.0494 9.02764 14.0417 8.78913 13.7936C8.55062 13.5456 8.55836 13.1512 8.80641 12.9127L12.2605 9.62332L3.42288 9.62332C3.07877 9.62332 2.7998 9.34436 2.7998 9.00025Z" fill="#FEFEFE"/>
</svg>
