<svg width="720" height="1024" viewBox="0 0 720 1024" fill="none" xmlns="http://www.w3.org/2000/svg">
<mask id="mask0_183_1571" style="mask-type:alpha" maskUnits="userSpaceOnUse" x="0" y="0" width="720" height="1024">
<rect width="720" height="1024" fill="black"/>
</mask>
<g mask="url(#mask0_183_1571)">
<rect width="720" height="1024" fill="black"/>
<path fill-rule="evenodd" clip-rule="evenodd" d="M48.8189 1070.69H122.035C157.724 1020.19 150.02 941.189 122.035 889.189C98.5173 854.98 110.886 782.636 122.035 733.689C124 725.067 125.913 716.942 127.73 709.228C143.67 641.547 152.168 605.465 122.035 542.189C109.968 516.847 99.3661 438.189 122.035 381.689C147.381 302.301 143.838 255.189 122.035 151.689C119.06 137.566 116.19 124.756 113.547 112.964C96.8242 38.3421 89.2298 4.45407 122.035 -64H48.8189C16.0133 4.45407 23.6076 38.3421 40.3306 112.964C42.9732 124.756 45.8438 137.566 48.8189 151.689C70.6212 255.189 74.1648 302.301 48.8189 381.689C26.1495 438.189 36.7509 516.847 48.8189 542.189C78.9514 605.465 70.4535 641.547 54.5134 709.228C52.6965 716.942 50.783 725.067 48.8189 733.689C37.6696 782.636 25.3008 854.98 48.8189 889.189C76.8039 941.189 84.5079 1020.19 48.8189 1070.69Z" fill="#FEFEFE"/>
<path fill-rule="evenodd" clip-rule="evenodd" d="M185.819 1070.69H259.035C294.724 1020.19 287.02 941.189 259.035 889.189C235.517 854.98 247.886 782.636 259.035 733.689C261 725.067 262.913 716.942 264.73 709.228C280.67 641.547 289.168 605.465 259.035 542.189C246.968 516.847 236.366 438.189 259.035 381.689C284.381 302.301 280.838 255.189 259.035 151.689C256.06 137.566 253.19 124.756 250.547 112.964C233.824 38.3421 226.23 4.45407 259.035 -64H185.819C153.013 4.45407 160.608 38.3421 177.331 112.964C179.973 124.756 182.844 137.566 185.819 151.689C207.621 255.189 211.165 302.301 185.819 381.689C163.15 438.189 173.751 516.847 185.819 542.189C215.951 605.465 207.454 641.547 191.513 709.228C189.697 716.942 187.783 725.067 185.819 733.689C174.67 782.636 162.301 854.98 185.819 889.189C213.804 941.189 221.508 1020.19 185.819 1070.69Z" fill="#FEFEFE"/>
<path fill-rule="evenodd" clip-rule="evenodd" d="M322.819 1070.69H396.035C431.724 1020.19 424.02 941.189 396.035 889.189C372.517 854.98 384.886 782.636 396.035 733.689C398 725.067 399.913 716.942 401.73 709.228C417.67 641.547 426.168 605.465 396.035 542.189C383.968 516.847 373.366 438.189 396.035 381.689C421.381 302.301 417.838 255.189 396.035 151.689C393.06 137.566 390.19 124.756 387.547 112.964C370.824 38.3421 363.23 4.45407 396.035 -64H322.819C290.013 4.45407 297.608 38.3421 314.331 112.964C316.973 124.756 319.844 137.566 322.819 151.689C344.621 255.189 348.165 302.301 322.819 381.689C300.15 438.189 310.751 516.847 322.819 542.189C352.951 605.465 344.454 641.547 328.513 709.228C326.697 716.942 324.783 725.067 322.819 733.689C311.67 782.636 299.301 854.98 322.819 889.189C350.804 941.189 358.508 1020.19 322.819 1070.69Z" fill="#FEFEFE"/>
<path fill-rule="evenodd" clip-rule="evenodd" d="M459.819 1015.69H533.035C568.724 965.189 561.02 886.189 533.035 834.189C509.517 799.98 521.886 727.636 533.035 678.689C535 670.067 536.913 661.942 538.73 654.228C554.67 586.547 563.168 550.465 533.035 487.189C520.968 461.847 510.366 383.189 533.035 326.689C558.381 247.301 554.838 200.189 533.035 96.6891C530.06 82.5656 527.19 69.7563 524.547 57.9643C507.824 -16.6579 500.23 -50.5459 533.035 -119H459.819C427.013 -50.5459 434.608 -16.6579 451.331 57.9643C453.973 69.7563 456.844 82.5656 459.819 96.6891C481.621 200.189 485.165 247.301 459.819 326.689C437.15 383.189 447.751 461.847 459.819 487.189C489.951 550.465 481.454 586.547 465.513 654.228C463.697 661.942 461.783 670.067 459.819 678.689C448.67 727.636 436.301 799.98 459.819 834.189C487.804 886.189 495.508 965.189 459.819 1015.69Z" fill="#FEFEFE"/>
<path fill-rule="evenodd" clip-rule="evenodd" d="M596.819 1015.69H670.035C705.724 965.189 698.02 886.189 670.035 834.189C646.517 799.98 658.886 727.636 670.035 678.689C671.999 670.067 673.913 661.942 675.73 654.228C691.67 586.547 700.168 550.465 670.035 487.189C657.967 461.847 647.366 383.189 670.035 326.689C695.381 247.301 691.838 200.189 670.035 96.6891C667.06 82.5656 664.19 69.7563 661.547 57.9643C644.824 -16.6579 637.23 -50.5459 670.035 -119H596.819C564.013 -50.5459 571.607 -16.6579 588.33 57.9643C590.973 69.7563 593.844 82.5656 596.819 96.6891C618.621 200.189 622.165 247.301 596.819 326.689C574.149 383.189 584.751 461.847 596.819 487.189C626.951 550.465 618.453 586.547 602.513 654.228C600.696 661.942 598.783 670.067 596.819 678.689C585.669 727.636 573.301 799.98 596.819 834.189C624.804 886.189 632.508 965.189 596.819 1015.69Z" fill="#FEFEFE"/>
</g>
</svg>
