<svg width="357" height="290" viewBox="0 0 357 290" fill="none" xmlns="http://www.w3.org/2000/svg">
<path d="M304.5 -60C304.5 17.7982 285.825 88.207 255.657 139.149C225.482 190.103 183.868 221.5 138 221.5C92.1321 221.5 50.5179 190.103 20.3434 139.149C-9.82458 88.207 -28.5 17.7982 -28.5 -60C-28.5 -137.798 -9.82458 -208.207 20.3434 -259.149C50.5179 -310.103 92.1321 -341.5 138 -341.5C183.868 -341.5 225.482 -310.103 255.657 -259.149C285.825 -208.207 304.5 -137.798 304.5 -60Z" stroke="#151515"/>
<path d="M356.5 -109C356.5 -31.2018 337.825 39.207 307.657 90.1493C277.482 141.103 235.868 172.5 190 172.5C144.132 172.5 102.518 141.103 72.3434 90.1493C42.1754 39.207 23.5 -31.2018 23.5 -109C23.5 -186.798 42.1754 -257.207 72.3434 -308.149C102.518 -359.103 144.132 -390.5 190 -390.5C235.868 -390.5 277.482 -359.103 307.657 -308.149C337.825 -257.207 356.5 -186.798 356.5 -109Z" stroke="#151515"/>
<path d="M321.5 8C321.5 85.7982 302.825 156.207 272.657 207.149C242.482 258.103 200.868 289.5 155 289.5C109.132 289.5 67.5179 258.103 37.3434 207.149C7.17542 156.207 -11.5 85.7982 -11.5 8C-11.5 -69.7982 7.17542 -140.207 37.3434 -191.149C67.5179 -242.103 109.132 -273.5 155 -273.5C200.868 -273.5 242.482 -242.103 272.657 -191.149C302.825 -140.207 321.5 -69.7982 321.5 8Z" stroke="#151515"/>
</svg>
