<svg width="322" height="321" viewBox="0 0 322 321" fill="none" xmlns="http://www.w3.org/2000/svg">
<path d="M285.849 91.957L288.236 86.8326C288.236 86.8326 288.236 86.6835 288.236 86.429C288.236 86.429 287.946 77.8212 287.569 75.1538C287.288 73.1532 286.428 72.8724 286.007 72.8636C285.416 72.3679 284.754 71.9654 284.041 71.6703C282.1 70.4892 280.084 69.4369 278.004 68.5202C275.942 67.4497 274.188 66.8355 273.45 68.0025C273.137 68.4946 272.865 69.011 272.634 69.5468C272.573 69.696 272.52 69.8364 272.468 69.9856V70.0733C272.323 70.5028 272.211 70.9428 272.134 71.3895L269.151 73.5568L268.274 74.0131L270.028 83.1824L275.205 89.2193C275.205 89.2193 275.205 89.465 275.1 89.8511C274.451 92.7234 273.107 95.3927 271.187 97.6253C270.457 98.3152 269.768 99.0477 269.125 99.8189C268.897 100.038 268.677 100.258 268.431 100.468C264.685 103.741 263.246 106.251 262.623 108.146V108.269C260.017 105.792 257.25 103.491 254.34 101.381C253.708 100.889 247.864 95.7826 243.705 91.8253L240.52 86.6133C241.546 88.4998 239.704 85.0251 239.537 84.6653C237.677 80.5238 236.905 75.9522 234.746 71.9335C231.535 65.7914 224.05 61.1321 216.732 60.1757L220.242 52.2786L216.802 50.901C216.903 50.9819 217.015 51.047 217.136 51.094C217.908 51.3748 219.408 51.9188 221.225 52.498C233.333 57.1309 236.72 54.2529 237.019 54.0247C237.471 53.7591 237.84 53.3712 238.082 52.9056C238.324 52.4399 238.43 51.9155 238.388 51.3924L237.335 36.1159C237.321 35.9273 237.347 35.7379 237.41 35.5596C237.474 35.3814 237.573 35.2183 237.703 35.0806L240.335 32.1762C240.55 31.9394 240.678 31.6364 240.697 31.3173C240.716 30.9982 240.626 30.6821 240.441 30.4213L236.852 25.3759C236.652 25.0997 236.561 24.7588 236.598 24.4195L237.001 20.6289C237.036 20.3566 236.983 20.0803 236.852 19.8392L231.929 10.3364C232.898 9.84455 233.732 9.12488 234.36 8.23931C237.054 3.85206 236.992 1.14073 235.106 0.11411C233.219 -0.912508 229.613 5.37882 220.54 3.39578C215.995 2.46569 206.431 11.4157 202.921 18.4879L206.65 9.8977C202.886 14.8641 200.789 16.3821 201.57 18.6722C201.491 18.7249 201.35 18.8126 201.175 18.9442C197.937 21.5152 197.665 24.0949 197.665 24.0949C196.788 27.1659 197.998 31.7638 203.184 37.7656L193.997 50.0499C193.299 49.5915 192.508 49.292 191.681 49.1724C187.917 48.5582 182.424 50.5062 180.757 51.1467C179.809 50.901 178.896 50.6816 178.028 50.4974C175.488 49.6119 172.82 49.1495 170.131 49.1286C167.335 48.8402 164.511 48.9852 161.76 49.5585C160.174 49.9944 158.628 50.5608 157.136 51.252C155.771 51.7812 154.461 52.4393 153.222 53.2175C151.924 53.9256 150.681 54.7292 149.502 55.6217C145.898 58.1596 142.652 61.1699 139.85 64.5717L136.972 68.0025C135.919 69.1081 134.875 70.2196 133.839 71.3369C129.161 76.1241 124.157 80.5806 118.861 84.6741C113.765 87.7851 108.3 90.2465 102.593 92.0008C98.6446 93.2644 94.5118 94.3524 90.3878 95.3351C86.0005 96.2828 81.5255 97.09 77.0593 97.9675C74.7779 98.3536 72.4527 98.845 70.1976 99.389C67.7495 99.9242 65.3102 100.503 62.8885 101.144C60.004 101.767 57.1774 102.633 54.4386 103.732C53.6489 104.013 52.8592 104.311 52.0783 104.61C52.6223 104.724 53.1575 104.855 53.684 105.013C56.7592 106.289 59.5776 108.111 62.0022 110.392C64.7396 113.702 66.4181 117.759 66.8194 122.036C66.7493 125.809 65.4945 130.117 64.5293 134.32C63.178 138.822 62.0812 142.735 63.8449 146.175C64.2492 147.23 64.844 148.203 65.5998 149.044C66.6299 150.29 67.829 151.385 69.1622 152.299C71.6103 154.212 74.4269 156.09 76.603 158.319C78.205 160.829 79.5905 163.471 80.7446 166.216C81.323 168.103 82.0689 169.936 82.9733 171.691C83.3594 172.568 83.763 173.446 84.2193 174.279C84.4548 174.764 84.7307 175.228 85.0441 175.666C87.7508 179.856 91.5042 183.268 95.9333 185.563C99.916 188.079 104.465 189.557 109.165 189.863C108.857 191.444 108.631 193.04 108.49 194.645C105.352 195.522 102.303 196.688 99.3817 198.129C93.8099 200.454 86.957 203.797 82.596 207.675C79.1557 210.765 76.2319 214.384 73.9356 218.398C71.2485 222.979 69.1299 227.87 67.6267 232.963C66.9598 234.973 66.3544 236.965 65.7665 238.895L65.7139 238.772C65.7139 239 65.6349 239.228 65.5998 239.457C64.8803 241.852 64.1871 244.16 63.4676 246.301C60.6071 252.908 55.8689 259.462 53.5524 262.92C52.3415 264.473 51.078 265.991 49.7793 267.491C46.9715 270.589 43.4178 274.221 40.6889 277.424C39.8124 278.368 39.0087 279.377 38.2847 280.442C37.6996 281.219 37.1968 282.054 36.7843 282.934C34.7047 287.778 39.2938 291.147 42.5316 295.28C42.5316 295.28 42.5842 295.368 42.6193 295.412C43.6603 297.569 44.3194 299.891 44.5673 302.273C44.4803 304.428 44.678 306.585 45.1552 308.687C45.7057 310.351 46.651 311.856 47.9104 313.075C49.4886 314.871 51.3868 316.359 53.5085 317.462C54.5565 318.098 55.6505 318.656 56.7814 319.129C60.0631 320.437 70.8996 320.358 73.3214 316.155C73.4698 315.896 73.6045 315.629 73.725 315.356C74.0284 314.843 74.2059 314.266 74.2427 313.671C74.3538 312.862 74.2629 312.038 73.9782 311.273C73.6934 310.507 73.2236 309.824 72.6106 309.284C72.5404 309.372 72.909 309.6 72.8388 309.697C68.9955 303.958 58.6855 297.307 58.7995 291.472C58.9663 280.372 65.6875 272.703 73.3565 265.517C80.8148 258.497 89.9315 257.321 96.8634 249.933C101.338 245.169 106.235 240.281 109.271 230.331C127.337 224.821 131.83 209.957 131.83 209.957C133.69 209.202 135.217 208.474 136.937 207.71C141.885 215.195 145.43 220.126 145.948 219.802L185.749 193.031C186.627 194.075 194.524 203.385 202.131 205.868L202.351 205.947L210.344 209.957C208.975 214.818 202.237 216.213 202.237 216.213V216.292L201.631 216.415C200.21 216.362 192.269 216.415 185.407 223.847C182.152 227.005 177.861 232.735 174.667 237.202C172.035 240.869 170.227 243.528 170.227 243.528C169.034 243.812 167.862 244.175 166.717 244.616C159.32 247.292 158.68 250.46 159.101 252.285C159.109 252.58 159.141 252.873 159.198 253.162C159.478 254.167 160.034 255.073 160.803 255.777C161.568 256.675 162.434 257.481 163.383 258.181C164.751 259.392 165.921 260.81 166.849 262.384C167.743 264.763 168.444 267.211 168.946 269.702C170.078 274.537 175.764 285.286 183.67 285.751C185.566 285.924 187.479 285.781 189.329 285.33C190.628 285.084 191.9 284.645 192.032 283.575C192.075 283.487 192.11 283.396 192.137 283.303C192.137 283.303 192.084 283.224 192.005 283.075C191.957 282.813 191.875 282.56 191.76 282.32C190.692 280.303 189.49 278.359 188.162 276.503C185.994 272.333 184.476 267.856 183.661 263.227C183.617 262.928 183.582 262.639 183.547 262.349C183.389 261.007 183.178 259.515 183.082 258.015C183.082 257.857 183.082 257.699 183.082 257.55C182.964 255.279 183.403 253.013 184.363 250.951C185.863 248.529 188.618 247.222 191.33 246.564C193.234 246.108 195.603 245.467 198.235 244.686C201.486 243.891 204.672 242.849 207.764 241.571C218.364 237.763 229.359 232.595 231.324 227.532C234.439 219.521 240.564 210.86 240.564 210.86C237.501 190.846 222.225 168.523 222.225 168.523L263.377 140.673C263.746 140.445 262.272 137.549 259.631 132.987L260.35 134.127C263.053 135.672 267.975 136.365 270.88 136.654L271.52 136.716C271.974 136.768 272.432 136.786 272.889 136.768C276.03 133.996 278.829 128.748 280.707 123.607C283.268 117.533 284.932 111.119 285.647 104.566C286.108 101.473 286.222 98.3391 285.989 95.2211C285.998 94.1506 285.945 93.0626 285.849 91.957ZM202.158 39.5731C202.491 39.0291 202.807 38.5289 203.088 38.0639L203.184 37.8358C204.123 36.2914 204.676 35.2824 204.676 35.2824L204.325 35.2034L204.439 34.9402L204.676 35.2824C204 36.8025 203.155 38.2418 202.158 39.5731Z" fill="white"/>
<path d="M267.177 102.223C267.177 102.223 270.423 112.989 284.208 109.98C284.208 109.98 287.042 102.96 285.542 92.2727L288.06 86.8501C288.06 86.8501 287.314 78.3651 287.437 77.1016C287.56 75.8381 287.586 73.2057 283.62 71.5824C279.654 69.9591 274.644 65.8 273.249 68.02C271.854 70.2399 272.029 71.3104 272.029 71.3104L268.519 73.8901L269.835 83.1911L275.021 89.2368C275.021 89.2368 274.337 94.7296 271.573 97.1338C269.868 98.6082 268.388 100.322 267.177 102.223Z" fill="#151515"/>
<path opacity="0.2" d="M281.014 110.612C281.014 110.612 284.313 96.3004 282.155 87.8856C282.155 87.8856 286.99 83.4106 285.603 72.8724C285.603 72.8724 287.016 72.4776 287.358 75.145C287.7 77.8125 288.034 86.429 288.034 86.429L285.682 91.8517C285.682 91.8517 285.507 104.224 284.735 109.12C284.726 109.12 284.524 110.199 281.014 110.612Z" fill="black"/>
<path d="M215.925 62.6587L260.341 127.59C260.341 127.59 262.974 130.284 269.37 131.495C269.37 131.495 278.829 120.965 280.988 110.62L284.498 109.918C284.498 109.918 280.426 130.345 273.091 136.874C273.091 136.874 264.237 136.426 260.289 134.153L215.6 63.4396L215.925 62.6587Z" fill="#151515"/>
<path opacity="0.6" d="M215.925 62.6587L260.341 127.59C260.341 127.59 262.974 130.284 269.37 131.495C269.37 131.495 278.829 120.965 280.988 110.62L284.498 109.918C284.498 109.918 280.426 130.345 273.091 136.874C273.091 136.874 264.237 136.426 260.289 134.153L215.6 63.4396L215.925 62.6587Z" fill="white"/>
<path d="M216.723 60.395C220.422 60.6504 223.996 61.8427 227.107 63.8597C230.219 65.8766 232.766 68.652 234.509 71.9247C236.615 75.9435 237.431 80.515 239.3 84.6565C242.389 91.5094 248.162 96.7654 254.103 101.381C257.84 104.276 261.763 107.058 264.632 110.822C266.09 112.721 267.161 114.889 267.782 117.201" stroke="#263238" stroke-linecap="round" stroke-linejoin="round"/>
<path d="M262.395 108.137C263.027 106.242 264.457 103.75 268.204 100.468C274.486 94.9841 274.986 89.2192 274.986 89.2192L269.801 83.1736L268.046 74.013L271.836 72.065C271.836 72.065 272.056 68.7483 273.942 67.7304C275.829 66.7126 284.735 72.0124 286.691 73.5216C287.955 74.5043 287.2 79.2952 288.043 86.4289C286.683 89.5088 285.691 91.8516 285.691 91.8516C287.964 118.93 273.038 136.865 273.038 136.865C268.653 136.627 264.331 135.709 260.228 134.145" stroke="#263238" stroke-linecap="round" stroke-linejoin="round"/>
<path d="M272.801 75.1975L275.539 77.6544C275.929 78.029 276.355 78.3641 276.811 78.6547C277.491 79.1812 278.3 79.5146 279.154 79.6199C279.865 79.6539 280.575 79.5435 281.242 79.2952C281.848 79.032 283.181 76.6629 283.357 76.0662" stroke="#263238" stroke-linecap="round" stroke-linejoin="round"/>
<path d="M267.045 101.6C267.045 101.6 269.862 113.648 284.761 109.708" stroke="#263238" stroke-linecap="round" stroke-linejoin="round"/>
<path d="M278.242 68.8184C277.491 69.1071 276.813 69.5569 276.256 70.136C275.698 70.7151 275.273 71.4095 275.013 72.1702C274.656 72.9295 274.462 73.7552 274.444 74.594C274.426 75.4328 274.584 76.2661 274.908 77.0401" stroke="#263238" stroke-linecap="round" stroke-linejoin="round"/>
<path d="M282.401 70.8455C281.463 71.1293 280.6 71.616 279.872 72.2712C279.144 72.9263 278.569 73.7337 278.189 74.636C277.557 76.0567 277.424 77.6492 277.812 79.1549" stroke="#263238" stroke-linecap="round" stroke-linejoin="round"/>
<path d="M277.224 78.9355C278.194 79.4634 279.081 80.1316 279.856 80.9186C281.471 82.7174 281.778 85.3058 282.015 87.6925" stroke="#263238" stroke-linecap="round" stroke-linejoin="round"/>
<path d="M271.819 72.0651C271.819 72.0651 274.67 70.3102 275.153 71.2578" stroke="#263238" stroke-linecap="round" stroke-linejoin="round"/>
<path d="M85.1758 257.804C85.1758 257.804 68.3902 253.461 65.9421 238.956C63.6374 246.01 60.3655 252.711 56.2199 258.866C49.6654 268.298 36.6703 279.117 36.6177 282.899C36.565 286.681 37.346 288.997 40.7505 292.174C44.155 295.35 44.5235 303.739 44.6551 305.713C44.914 307.772 45.6052 309.754 46.6833 311.528C47.7615 313.301 49.2023 314.827 50.9114 316.005C55.79 319.515 63.6607 320.963 69.4519 318.585C75.2431 316.207 74.8131 311.767 72.874 309.6C70.9348 307.433 59.2647 296.728 58.8347 293.104C58.4048 289.48 59.6595 282.101 63.5291 276.239C67.3987 270.378 76.919 261.402 85.1758 257.804Z" fill="#151515"/>
<path d="M220.198 52.4453C220.198 52.4453 216.61 58.3155 215.53 63.431" stroke="#263238" stroke-linecap="round" stroke-linejoin="round"/>
<path d="M223.594 12.916C224.857 16.5223 225.866 20.4972 224.62 24.1035C223.857 26.3235 222.304 28.1924 221.514 30.3948C220.637 32.7903 220.751 35.4226 220.856 37.9672C221.005 41.4069 221.242 45.0922 223.366 47.7947C226.463 51.7432 232.21 52.0503 236.843 53.9983C236.843 53.9983 233.728 57.3765 220.953 52.4715L216.565 50.8833L214.24 61.518C214.24 61.518 212.871 59.2191 210.73 59.5701C208.589 59.9211 202.903 64.1592 202.903 64.1592C202.903 64.1592 199.639 60.9302 198.911 58.7541C198.183 56.578 196.191 51.3659 193.875 50.1638C193.875 50.1638 203.526 38.4762 204.597 35.3086C204.597 35.3086 199.122 28.0959 205.404 25.2618C211.687 22.4276 215.135 29.649 215.135 29.649L212.924 20.2866L221.348 13.1617L223.594 12.916Z" fill="#151515"/>
<path opacity="0.6" d="M223.594 12.916C224.857 16.5223 225.866 20.4972 224.62 24.1035C223.857 26.3235 222.304 28.1924 221.514 30.3948C220.637 32.7903 220.751 35.4226 220.856 37.9672C221.005 41.4069 221.242 45.0922 223.366 47.7947C226.463 51.7432 232.21 52.0503 236.843 53.9983C236.843 53.9983 233.728 57.3765 220.953 52.4715L216.565 50.8833L214.24 61.518C214.24 61.518 212.871 59.2191 210.73 59.5701C208.589 59.9211 202.903 64.1592 202.903 64.1592C202.903 64.1592 199.639 60.9302 198.911 58.7541C198.183 56.578 196.191 51.3659 193.875 50.1638C193.875 50.1638 203.526 38.4762 204.597 35.3086C204.597 35.3086 199.122 28.0959 205.404 25.2618C211.687 22.4276 215.135 29.649 215.135 29.649L212.924 20.2866L221.348 13.1617L223.594 12.916Z" fill="white"/>
<path d="M231.517 9.92383L236.677 19.8917C236.805 20.1308 236.857 20.4032 236.826 20.6726L236.422 24.472C236.387 24.8072 236.474 25.1438 236.668 25.4196L240.265 30.4737C240.452 30.7343 240.543 31.0516 240.522 31.3716C240.502 31.6916 240.37 31.9945 240.151 32.2286L237.519 35.1242C237.393 35.2639 237.296 35.4275 237.234 35.6054C237.172 35.7832 237.147 35.9717 237.159 36.1596L238.212 51.4361C238.253 52.026 238.106 52.6138 237.79 53.114C237.474 53.6142 237.008 54.0007 236.457 54.2176C235.188 54.6481 233.858 54.8704 232.518 54.8757C227.929 55.0336 219.242 51.945 216.96 51.1026C216.783 51.0383 216.62 50.9382 216.483 50.8084C216.345 50.6785 216.236 50.5218 216.162 50.348L212.363 41.3629" stroke="#263238" stroke-linecap="round" stroke-linejoin="round"/>
<path d="M211.924 29.8685C211.924 29.8685 209.291 23.972 207.036 24.6038C204.781 25.2355 202.088 27.2361 202.149 29.9211C202.21 32.6061 206.334 37.2742 208.089 37.6866C209.384 37.898 210.711 37.7957 211.959 37.3882" stroke="#263238" stroke-linecap="round" stroke-linejoin="round"/>
<path d="M232.913 25.5778C232.913 26.4552 232.553 27.1572 232.132 27.1484C231.711 27.1396 231.377 26.4289 231.395 25.5602C231.412 24.6915 231.754 23.9808 232.176 23.9896C232.597 23.9984 232.93 24.7091 232.913 25.5778Z" fill="#263238"/>
<path d="M229.754 36.0105C229.76 36.9418 230.084 37.8431 230.673 38.5646C231.262 39.2861 232.08 39.7843 232.992 39.9766" stroke="#263238" stroke-linecap="round" stroke-linejoin="round"/>
<path d="M233.123 20.0584C233.123 20.0584 229.201 16.6451 226.911 22.9277" stroke="#263238" stroke-width="2" stroke-linecap="round" stroke-linejoin="round"/>
<path d="M203.851 35.1594L204.535 35.3086C204.535 35.3086 199.192 45.022 193.813 50.1638" stroke="#263238" stroke-linecap="round" stroke-linejoin="round"/>
<path d="M205.799 36.4141C205.799 36.4141 203.606 53.1734 206.677 60.895" stroke="#263238" stroke-linecap="round" stroke-linejoin="round"/>
<path d="M201.912 19.9969C201.912 19.9969 198.297 12.9071 203.369 6.22974" stroke="#263238" stroke-linecap="round" stroke-linejoin="round"/>
<path d="M203.307 18.7774C196.419 18.4001 194.366 26.6745 194.366 26.6745" stroke="#263238" stroke-linecap="round" stroke-linejoin="round"/>
<path d="M234.931 0.166611C233.07 -0.868781 229.438 5.43132 220.365 3.44828C214.582 2.2023 200.684 6.01921 201.491 18.6721C201.491 18.6721 190.882 24.8142 202.947 38.0901L204.501 34.4837C204.501 34.4837 199.473 29.0962 203.816 26.3673C207.659 23.9631 208.151 24.2526 211.81 30.0701C211.81 30.0701 213.038 32.6148 215.425 31.8952C217.811 31.1757 217.706 30.1842 216.741 27.7888C216.381 26.9113 215.785 25.4197 215.293 23.7876C217.469 23.1646 222.699 20.9183 222.629 13.7057V13.6004C227.253 12.3193 232.588 10.8101 234.185 8.24794C236.878 3.94843 236.791 1.19323 234.931 0.166611Z" fill="#263238"/>
<path d="M203.957 18.3386C203.29 14.3989 206.002 10.4942 209.503 8.58136C213.004 6.66852 217.145 6.35264 221.138 6.28244C223.683 6.3607 226.228 6.15469 228.728 5.66822C229.602 5.46775 230.452 5.17356 231.263 4.79077" stroke="white" stroke-width="0.5" stroke-linecap="round" stroke-linejoin="round"/>
<path d="M205.922 20.4621C206.193 18.9422 206.919 17.5407 208.006 16.4436C209.092 15.3465 210.486 14.6058 212.003 14.3199C213.591 14.0567 215.241 14.3199 216.82 13.9865C218.399 13.653 220.014 12.4421 219.944 10.8276" stroke="white" stroke-width="0.5" stroke-linecap="round" stroke-linejoin="round"/>
<path d="M166.007 90.1141L208.019 60.2018C208.504 59.8568 209.054 59.6162 209.637 59.4953C210.219 59.3744 210.82 59.3759 211.402 59.4997C211.983 59.6235 212.533 59.8668 213.016 60.2142C213.498 60.5617 213.903 61.0056 214.205 61.518C214.205 61.518 265.212 139.444 263.237 140.673L145.755 219.705C143.746 220.968 96.8988 144.034 96.8988 144.034C96.317 143.103 96.112 141.986 96.3256 140.91C96.5392 139.834 97.1553 138.88 98.0483 138.242L120.3 122.124" stroke="#263238" stroke-linecap="round" stroke-linejoin="round"/>
<path d="M196.718 185.054C198.806 190.135 203.378 193.706 207.905 196.812C212.433 199.918 217.242 202.954 220.251 207.535C223.261 212.115 223.875 218.836 220.041 222.758C219.699 223.182 219.259 223.516 218.759 223.732C218.259 223.947 217.714 224.038 217.171 223.996C214.679 223.504 215.118 219.433 213.091 217.906C210.029 222.241 203.702 223.908 200.158 224.408L202.044 216.125C202.044 216.125 206.686 215.607 210.16 210.641C210.16 210.641 210.02 208.412 201.939 205.78C193.857 203.147 185.469 192.837 185.469 192.837L196.718 185.054Z" fill="#151515"/>
<path opacity="0.6" d="M196.718 185.054C198.806 190.135 203.378 193.706 207.905 196.812C212.433 199.918 217.242 202.954 220.251 207.535C223.261 212.115 223.875 218.836 220.041 222.758C219.699 223.182 219.259 223.516 218.759 223.732C218.259 223.947 217.714 224.038 217.171 223.996C214.679 223.504 215.118 219.433 213.091 217.906C210.029 222.241 203.702 223.908 200.158 224.408L202.044 216.125C202.044 216.125 206.686 215.607 210.16 210.641C210.16 210.641 210.02 208.412 201.939 205.78C193.857 203.147 185.469 192.837 185.469 192.837L196.718 185.054Z" fill="white"/>
<path d="M210.02 240.378C210.02 240.378 197.077 233.639 201.64 216.336C201.64 216.336 192.76 215.537 185.197 223.759C177.633 231.981 170.017 243.44 170.017 243.44C170.017 243.44 158.82 246.827 158.934 251.127C159.049 255.426 162.278 257.374 164.489 259.129C166.7 260.884 167.665 264.85 168.797 269.658C169.929 274.467 175.615 285.242 183.521 285.707C191.427 286.172 191.979 283.259 191.979 283.259C191.979 283.259 190.303 280.302 188.127 276.66C185.951 273.019 182.985 264.376 182.915 257.488C182.845 250.6 185.644 247.555 190.479 246.423C195.314 245.291 204.123 243.554 210.02 240.378Z" fill="#151515"/>
<path d="M185.934 193.136C184.574 191.767 193.919 202.981 203.755 206.429C213.407 209.825 213.407 214.642 213.407 214.642" stroke="#263238" stroke-linecap="round" stroke-linejoin="round"/>
<path d="M222.085 168.523C222.085 168.523 237.326 190.828 240.397 210.843C240.397 210.843 234.255 219.512 231.149 227.514C228.043 235.517 202.044 243.896 191.164 246.537C188.215 247.248 185.197 248.713 183.819 251.565C182.284 254.742 183.003 258.953 183.389 262.323C183.76 266.043 184.686 269.687 186.136 273.133C187.592 276.423 190.084 279.082 191.611 282.294C192.857 284.926 189.646 285.277 187.68 285.54C175.598 287.181 169.578 273.984 168.131 266.306C166.683 258.629 159.751 256.812 158.996 253.066C157.601 246.151 170.017 243.414 170.017 243.414C169.78 243.914 179.239 229.515 185.197 223.732C187.496 221.486 189.988 219.293 193.094 218.099C196.2 216.906 199.754 216.783 203.053 215.949C206.352 215.116 209.722 213.142 210.397 210.018" stroke="#263238" stroke-linecap="round" stroke-linejoin="round"/>
<path d="M201.807 216.441C201.807 216.441 195.595 232.174 210.397 240.474" stroke="#263238" stroke-linecap="round" stroke-linejoin="round"/>
<path d="M190.005 190.24C194.616 195.924 200.623 200.315 207.44 202.981" stroke="#263238" stroke-linecap="round" stroke-linejoin="round"/>
<path d="M203.72 219.064C200.831 219.246 197.983 219.837 195.261 220.819C192.526 221.813 190.104 223.515 188.241 225.751" stroke="#263238" stroke-linecap="round" stroke-linejoin="round"/>
<path opacity="0.2" d="M200.438 224.742C195.115 226.728 189.965 229.149 185.039 231.981C180.104 234.825 175.886 238.763 172.711 243.493C172.36 244.105 171.945 244.679 171.474 245.204C170.307 246.371 168.587 246.722 167.043 247.31C163.638 248.608 159.514 254.005 159.584 253.662C159.584 253.662 154.53 247.52 170.017 243.405C170.017 243.405 177.967 231.796 183.302 225.926C188.637 220.056 191.646 217.345 201.368 216.353L200.438 224.742Z" fill="black"/>
<path d="M201.167 65.1069L202.237 64.1504C200.808 62.1057 199.535 59.9557 198.429 57.7187C197.271 55.0864 196.016 49.9357 191.533 49.2074C187.049 48.4792 180.126 51.3835 180.126 51.3835C180.126 51.3835 170.219 47.6456 161.638 49.6286C161.638 49.6286 149.757 52.5154 139.701 64.6418C129.646 76.7682 121.731 85.8498 102.454 92.0271C83.176 98.2043 59.713 100.293 52.553 104.689C52.553 104.689 65.9078 109.225 66.7326 120.202C67.5574 131.179 60.2921 139.611 63.7054 146.245C67.1187 152.878 73.4451 154.282 76.2354 158.055C79.0257 161.828 82.4829 170.866 84.0886 174.402C85.6943 177.938 96.0483 188.731 109.035 189.968C109.035 189.968 111.588 178.21 114.843 173.297L96.9257 144.016C96.9257 144.016 94.8023 140.743 98.3559 137.874C101.91 135.005 120.292 122.141 120.292 122.141C120.292 122.141 117.283 116.569 116.695 112.068C116.264 109.269 114.912 106.693 112.851 104.75C112.851 104.75 114.931 98.3359 119.81 94.5717C124.688 90.8074 133.919 81.9627 137.955 76.2154C141.992 70.4681 151.012 53.6122 167.596 51.5678C170.875 52.6986 173.903 54.4569 176.511 56.7447C181.056 60.6319 189.839 67.3444 201.167 65.1069Z" fill="#151515"/>
<path opacity="0.2" d="M109.035 189.968C109.035 189.968 97.9786 189.968 88.5636 179.684C79.1485 169.401 81.544 164.232 77.3147 159.292C73.0854 154.352 65.5217 151.272 63.7054 146.227C61.8891 141.182 66.0482 128.783 66.6536 124.458C67.2591 120.132 64.46 107.663 52.553 104.671C52.553 104.671 66.4869 99.5467 78.6133 97.7391C90.7397 95.9316 107.78 91.325 115.615 86.7447C123.451 82.1644 136.753 68.4849 139.307 65.5367C141.86 62.5884 151.31 52.5241 158.611 50.8306C164.489 49.4705 167.657 51.5677 167.657 51.5677C167.657 51.5677 153.618 54.551 146.142 63.9222C140.131 71.4156 138.912 77.2331 130.848 84.8757C122.784 92.5183 115.677 96.1422 112.851 104.039C112.851 104.039 115.791 108.321 116.23 110.997C116.668 113.674 120.354 122.141 120.354 122.141L98.1015 138.26C98.1015 138.26 94.5917 140.234 97.0661 144.604C99.5405 148.974 114.94 173.56 114.94 173.56C114.94 173.56 108.754 185.651 109.035 189.968Z" fill="black"/>
<path opacity="0.38" d="M180.985 51.2782C180.985 51.2782 190.207 48.1544 193.137 49.9093C196.068 51.6642 202.245 64.6681 202.245 64.6681L200.587 66.0457C200.587 66.0457 187.697 64.8436 183.082 61.5005C178.467 58.1574 172.552 51.0764 161.944 50.2954C161.962 50.2954 167.911 47.821 180.985 51.2782Z" fill="white"/>
<path d="M160.637 50.2075C149.028 53.5682 145.448 59.3242 139.254 65.519C134.708 70.0642 130.558 75.0043 125.846 79.374C106.2 97.5724 76.8668 94.9224 51.9033 104.645C55.5595 105.288 58.9257 107.051 61.5365 109.69C64.1474 112.329 65.874 115.714 66.4778 119.377C67.8642 127.45 60.906 139.26 64.0736 146.815C66.1444 151.755 72.0935 153.668 75.8051 157.537C80.1924 162.074 81.0698 168.848 84.0619 174.367C89.0458 183.457 98.6539 188.292 109.008 189.95" stroke="#263238" stroke-linecap="round" stroke-linejoin="round"/>
<path d="M114.43 107.067C113.018 108.506 111.745 110.076 110.359 111.533C103.383 118.833 93.7489 122.878 84.4128 126.739" stroke="#263238" stroke-linecap="round" stroke-linejoin="round"/>
<path d="M116.861 113.63C111.649 119.772 104.374 122.711 97.311 126.607C90.2475 130.503 83.1051 135.514 80.3499 143.095" stroke="#263238" stroke-linecap="round" stroke-linejoin="round"/>
<path d="M184.881 55.2793C175.914 44.9605 158.558 50.8131 158.558 50.8131C165.191 49.9356 170.219 50.8131 180.029 59.0523C187.689 65.4841 196.858 65.7912 200.403 65.5893" stroke="#263238" stroke-linecap="round" stroke-linejoin="round"/>
<path d="M179.931 51.4536C182.817 50.6221 185.746 49.9513 188.706 49.4442C189.502 49.2795 190.317 49.2234 191.128 49.2775C191.985 49.4222 192.805 49.7384 193.538 50.2073C194.271 50.6762 194.901 51.2881 195.392 52.0064C196.363 53.4466 197.186 54.9811 197.849 56.5867C199.106 59.2204 200.594 61.7369 202.298 64.1065" stroke="#263238" stroke-linecap="round" stroke-linejoin="round"/>
<path d="M123.468 187.617C123.468 187.617 113.158 195.987 110.306 209.807C109.37 208.813 108.715 207.588 108.406 206.258C108.098 204.928 108.148 203.54 108.551 202.235C108.551 202.235 79.5954 214.572 68.3202 245.958L65.8896 238.939C65.8896 238.939 69.7855 216.844 83.7896 207.017C97.9517 197.067 108.279 194.733 108.279 194.733C108.279 194.733 110.034 179.439 114.878 173.972L123.468 187.617Z" fill="#151515"/>
<path opacity="0.6" d="M123.468 187.652C123.468 187.652 113.158 195.988 110.306 209.807C109.37 208.813 108.715 207.588 108.406 206.258C108.098 204.928 108.148 203.54 108.551 202.235C108.551 202.235 79.5954 214.572 68.3202 245.958L65.8896 238.939C65.8896 238.939 69.7855 216.845 83.7896 207.017C97.9517 197.067 108.279 194.733 108.279 194.733C108.279 194.733 110.034 179.641 114.878 174.174L123.468 187.652Z" fill="white"/>
<path d="M136.779 207.596C135.024 208.368 133.506 209.105 131.637 209.86C131.637 209.86 127.145 224.724 109.078 230.243C106.042 240.176 101.181 245.081 96.671 249.845C89.7391 257.225 80.6224 258.444 73.1641 265.42C65.4864 272.607 58.7739 280.275 58.6071 291.375C58.4667 300.22 82.2545 310.96 71.1108 317.506C59.9672 324.052 45.2611 315.093 44.7873 306.538C44.3135 297.982 42.892 294.797 38.6451 290.164C33.942 284.996 37.5044 280.512 41.6372 276.169C50.1485 267.175 57.4313 259.085 62.7575 247.783C66.9166 236.175 69.5753 219.029 82.3685 207.675C90.7394 200.243 108.315 194.715 108.315 194.715C108.315 194.715 109.113 183.308 114.887 173.56" stroke="#263238" stroke-linecap="round" stroke-linejoin="round"/>
<path d="M65.8015 238.228C66.1086 237.351 68.4339 255.681 85.7284 257.392" stroke="#263238" stroke-linecap="round" stroke-linejoin="round"/>
<path d="M95.8016 202.893C88.7639 206.107 82.9553 211.512 79.2441 218.301" stroke="#263238" stroke-linecap="round" stroke-linejoin="round"/>
<path d="M103.515 200.252C101.505 200.707 99.5354 201.326 97.627 202.103" stroke="#263238" stroke-linecap="round" stroke-linejoin="round"/>
<path d="M49.9724 311.056C51.6355 313.52 53.9996 315.429 56.759 316.535C59.5184 317.641 62.5461 317.893 65.4507 317.26" stroke="#263238" stroke-linecap="round" stroke-linejoin="round"/>
<path opacity="0.2" d="M68.4958 245.133C65.5125 253.46 61.2919 260.928 54.7461 266.877C51.9734 269.404 48.9199 271.65 46.4191 274.458C43.9184 277.266 41.9529 280.784 41.9529 284.54C42.061 286.703 42.4898 288.838 43.2252 290.875C44.243 294.157 45.255 297.432 46.2612 300.702C46.8551 303.02 47.7801 305.239 49.0076 307.292C50.3513 309.222 52.0964 310.838 54.1231 312.03C56.9362 313.871 60.2293 314.841 63.5908 314.821C66.9252 314.698 70.9439 312.057 72.8743 309.328C72.8743 309.328 75.5593 311.872 73.1375 316.075C70.7157 320.278 59.888 320.357 56.6063 319.05C53.3247 317.743 46.3226 313.399 44.9801 308.661C43.6376 303.923 45.5855 299.395 42.3477 295.262C39.11 291.129 34.5297 287.751 36.6092 282.908C38.6888 278.064 50.1571 267.71 53.3773 262.893C56.5976 258.076 64.4683 247.371 65.5388 238.737L68.4958 245.133Z" fill="black"/>
<path d="M196.218 127.046L261.167 136.356L262.781 140.454L196.393 128.88L196.218 127.046Z" fill="#151515"/>
<path opacity="0.6" d="M196.218 127.046L261.167 136.356L262.781 140.454L196.393 128.88L196.218 127.046Z" fill="white"/>
<path d="M162.514 153.229L142.043 214.967L145.702 219.442L163.348 154.967L162.514 153.229Z" fill="#151515"/>
<path opacity="0.6" d="M162.514 153.229L142.043 214.967L145.702 219.442L163.348 154.967L162.514 153.229Z" fill="white"/>
<path d="M212.038 59.8596L190.926 162.021L96.8987 144.034L96.4775 142.454L188.004 157.327L212.038 59.8596Z" fill="#151515"/>
<path opacity="0.6" d="M212.038 59.8596L190.926 162.021L96.8987 144.034L96.4775 142.454L188.004 157.327L212.038 59.8596Z" fill="white"/>
<path d="M211.099 101.524C217.782 98.5904 220.821 90.7951 217.888 84.1124C214.954 77.4298 207.159 74.3905 200.476 77.324C193.794 80.2575 190.754 88.0528 193.688 94.7354C196.621 101.418 204.417 104.457 211.099 101.524Z" fill="#151515"/>
<path d="M207.712 76.1013L211.652 59.7192" stroke="#263238" stroke-linecap="round" stroke-linejoin="round"/>
<path d="M145.641 219.275L164.147 153.203" stroke="#263238" stroke-linecap="round" stroke-linejoin="round"/>
<path d="M194.963 128.81L263.027 140.357" stroke="#263238" stroke-linecap="round" stroke-linejoin="round"/>
<path d="M152.284 116.333L185.039 92.7729" stroke="#263238" stroke-linecap="round" stroke-linejoin="round"/>
<path d="M154.03 121.167L187.548 97.0283" stroke="#263238" stroke-linecap="round" stroke-linejoin="round"/>
<path d="M157.812 129.055C161.568 129.354 165.885 126.695 168.026 123.641C170.167 120.588 171.869 117.061 174.957 114.92C177.039 113.662 179.304 112.735 181.67 112.173C184.039 111.603 186.265 110.549 188.207 109.076C190.041 107.488 191.208 104.934 190.471 102.644" stroke="#263238" stroke-linecap="round" stroke-linejoin="round"/>
<path d="M160.075 132.162C163.831 132.741 167.279 130.117 169.631 127.16C171.982 124.203 173.808 120.746 176.887 118.535C179.285 116.699 182.055 115.411 185.004 114.762C189.979 113.884 193.296 110.84 193.462 107.865" stroke="#263238" stroke-linecap="round" stroke-linejoin="round"/>
<path d="M205.729 102.434C213.008 102.434 218.909 96.533 218.909 89.2543C218.909 81.9755 213.008 76.075 205.729 76.075C198.451 76.075 192.55 81.9755 192.55 89.2543C192.55 96.533 198.451 102.434 205.729 102.434Z" stroke="#263238" stroke-linecap="round" stroke-linejoin="round"/>
<path d="M166.007 90.1141L208.019 60.2018C208.504 59.8568 209.054 59.6162 209.637 59.4953C210.219 59.3744 210.82 59.3759 211.402 59.4997C211.983 59.6235 212.533 59.8668 213.016 60.2142C213.498 60.5617 213.903 61.0056 214.205 61.518C214.205 61.518 265.212 139.444 263.237 140.673L145.755 219.705C143.746 220.968 96.8988 144.034 96.8988 144.034C96.317 143.103 96.112 141.986 96.3256 140.91C96.5392 139.834 97.1553 138.88 98.0483 138.242L120.3 122.124" stroke="#263238" stroke-linecap="round" stroke-linejoin="round"/>
<path d="M188.759 153.94L201.324 101.872" stroke="#263238" stroke-linecap="round" stroke-linejoin="round"/>
<path d="M96.2407 142.463L164.34 153.159" stroke="#263238" stroke-linecap="round" stroke-linejoin="round"/>
<path d="M139.639 138.339C139.639 138.339 150.23 139.629 155.433 125.984C155.433 125.984 161.575 135.066 166.603 138.462C166.603 138.462 168.744 137.9 173.456 139.032C177.163 139.765 180.936 140.11 184.714 140.059C184.714 140.059 183.547 144.156 180.95 144.235C179.26 144.24 177.594 143.843 176.088 143.077L175.509 144.507L192.927 157.546C193.146 157.827 193.308 158.148 193.403 158.491C193.498 158.835 193.523 159.193 193.478 159.547C193.433 159.9 193.319 160.241 193.141 160.55C192.964 160.859 192.727 161.129 192.444 161.346L180.16 152.834L179.581 154.273C179.581 154.273 186.934 164.083 187.144 165.628C187.355 167.172 187.004 167.277 185.819 167.383C184.635 167.488 182.889 165.68 182.889 165.68L176.317 156.23L175.176 157.274C175.176 157.274 179.879 166.926 179.274 168.971C178.668 171.015 175.983 168.172 175.983 168.172L172.333 159.6C172.333 159.6 173.763 166.365 171.622 167.277C169.481 168.19 169.323 165.47 168.753 159.012L163.067 151.246C163.067 151.246 146.448 143.7 139.639 138.339Z" fill="#151515"/>
<path opacity="0.2" d="M145.606 137.128L164.085 149.833L168.709 159.012L163.83 152.01L139.551 139.19L145.606 137.128Z" fill="black"/>
<path d="M174.009 54.9985C165.963 59.3858 164.831 60.7283 160.628 64.4136C155.363 69.029 150.511 74.943 149.985 81.8924C149.819 83.0912 150.011 84.3123 150.537 85.4022C151.643 87.3765 154.346 87.9731 156.522 87.3502C158.698 86.7272 160.47 85.1828 162.164 83.6824C161.699 84.0948 161.427 85.4987 161.032 86.0866C160.519 86.8534 159.895 87.5395 159.18 88.1223C157.555 89.3661 155.691 90.2621 153.705 90.7547C148.888 92.1323 143.597 92.0445 138.613 93.036C133.348 94.0802 129.759 96.8003 126.381 100.863C123.986 103.741 128.136 111.173 129.338 114.718C132.128 123.212 139.253 130.837 145.606 137.119L139.639 138.33C139.639 138.33 123.538 129.81 120.335 122.115C117.133 114.42 115.325 107.891 112.552 104.276C112.552 104.276 114.895 98.757 125.197 89.6929C135.498 80.6289 140.824 71.6964 144.816 66.265C150.204 58.9207 162.629 51.9976 167.63 51.5414C167.586 51.5238 169.727 51.8836 174.009 54.9985Z" fill="#151515"/>
<path opacity="0.6" d="M174.132 54.9373C166.077 59.3246 164.831 60.7285 160.628 64.4138C155.363 69.0292 150.511 74.9432 149.985 81.8926C149.819 83.0915 150.011 84.3125 150.537 85.4024C151.643 87.3767 154.346 87.9734 156.522 87.3504C158.698 86.7274 160.47 85.1831 162.164 83.6826C161.699 84.095 161.427 85.4989 161.032 86.0868C160.519 86.8536 159.895 87.5397 159.18 88.1225C157.555 89.3663 155.691 90.2623 153.705 90.7549C148.888 92.1325 143.597 92.0447 138.613 93.0363C133.348 94.0804 129.759 96.8005 126.381 100.863C123.986 103.741 128.136 111.173 129.338 114.718C132.128 123.212 139.253 130.837 145.606 137.119L139.639 138.33C139.639 138.33 123.538 129.81 120.335 122.115C117.133 114.42 115.325 107.892 112.552 104.276C112.552 104.276 114.895 98.7572 125.197 89.6932C135.498 80.6291 140.824 71.6966 144.816 66.2652C150.204 58.9209 163.243 52.0417 168.244 51.5854C170.298 52.5354 172.267 53.6567 174.132 54.9373Z" fill="white"/>
<path d="M147.756 109.532C155.03 104.575 166.612 94.4048 168.639 81.9275" stroke="#263238" stroke-linecap="round" stroke-linejoin="round"/>
<path d="M168.972 140.015C162.242 135.933 157.102 129.682 154.398 122.29C150.634 112.077 146.667 106.154 136.638 102.337" stroke="#263238" stroke-linecap="round" stroke-linejoin="round"/>
<path d="M123.073 120.72C126.16 125.686 130.623 129.649 135.919 132.127" stroke="#263238" stroke-linecap="round" stroke-linejoin="round"/>
<path d="M119.993 114.104C120.51 115.744 121.177 117.333 121.984 118.851" stroke="#263238" stroke-linecap="round" stroke-linejoin="round"/>
<path d="M139.639 138.339C139.639 138.339 151.292 138.646 155.644 125.449" stroke="#263238" stroke-linecap="round" stroke-linejoin="round"/>
<path d="M160.014 57.8152C161.941 57.0374 163.939 56.4496 165.981 56.0603" stroke="#263238" stroke-linecap="round" stroke-linejoin="round"/>
<path d="M144.404 71.986C147.409 66.2938 152.127 61.6897 157.89 58.8242" stroke="#263238" stroke-linecap="round" stroke-linejoin="round"/>
<path d="M136.499 100.029C138.102 100.449 139.596 101.208 140.88 102.256C142.163 103.303 143.207 104.615 143.939 106.101" stroke="#263238" stroke-linecap="round" stroke-linejoin="round"/>
<path d="M167.253 138.786C169.569 137.725 172.518 138.585 173.904 139.032C175.799 139.62 183.275 140.673 184.688 140.059C186.101 139.444 183.451 143.279 181.819 144.034C180.187 144.788 176.063 143.077 176.063 143.077L175.483 144.507C175.483 144.507 192.313 156.274 193.269 157.941C194.226 159.608 193.576 161.223 192.445 161.346C191.313 161.468 180.16 152.834 180.16 152.834L179.581 154.273C179.581 154.273 188.356 165.514 187.478 166.689C186.601 167.865 184.758 167.391 183.337 165.9C181.915 164.408 176.317 156.248 176.317 156.248L175.176 157.292C175.176 157.292 179.888 167.821 179.274 168.988C178.66 170.155 177.186 169.734 176.326 168.637C175.466 167.54 171.991 158.898 171.991 158.898C171.991 158.898 172.912 166.163 172.368 166.961C172.221 167.15 172.032 167.301 171.815 167.403C171.599 167.504 171.361 167.554 171.122 167.547C170.883 167.54 170.649 167.477 170.439 167.363C170.229 167.249 170.048 167.088 169.912 166.891C169.359 166.014 168.753 158.994 168.753 158.994L163.067 151.229C151.16 146.525 129.838 132.197 129.838 132.197C118.589 123.15 117.554 115.788 116.22 110.962C115.617 108.65 114.481 106.51 112.904 104.715C115.948 92.9658 129.988 90.5704 140.789 71.9246C151.59 53.2787 168.455 51.6028 168.455 51.6028" stroke="#263238" stroke-linecap="round" stroke-linejoin="round"/>
<path d="M20.596 221.302L0.923584 237.57" stroke="#263238" stroke-linecap="round" stroke-linejoin="round"/>
<path d="M71.9271 178.851L32.5032 211.448" stroke="#263238" stroke-linecap="round" stroke-linejoin="round"/>
<path d="M20.2276 164.373L12.4622 170.796" stroke="#263238" stroke-linecap="round" stroke-linejoin="round"/>
<path d="M57.037 133.934L26.3174 159.337" stroke="#263238" stroke-linecap="round" stroke-linejoin="round"/>
<path d="M37.7763 156.02L19.0515 171.507" stroke="#263238" stroke-linecap="round" stroke-linejoin="round"/>
<path d="M136.183 233.078L111.807 253.233" stroke="#263238" stroke-linecap="round" stroke-linejoin="round"/>
<path d="M149.213 222.303L139.517 230.314" stroke="#263238" stroke-linecap="round" stroke-linejoin="round"/>
<path d="M145.501 231.138L135.805 239.158" stroke="#263238" stroke-linecap="round" stroke-linejoin="round"/>
<path d="M254.306 55.8853L248.339 60.8165" stroke="#263238" stroke-linecap="round" stroke-linejoin="round"/>
<path d="M278.505 35.8704L257.148 53.5335" stroke="#263238" stroke-linecap="round" stroke-linejoin="round"/>
<path d="M237.344 157.731H322C322 157.731 321.123 153.712 317.551 152.466C313.98 151.22 311.409 152.466 311.409 148.237C311.409 144.007 310.347 141.884 306.329 141.042C306.329 141.042 303.793 131.942 295.747 131.091C287.7 130.24 281.988 131.302 280.716 136.172C279.444 141.042 278.18 143.577 275.855 143.367C273.53 143.156 269.713 140.831 267.809 145.271C265.905 149.711 265.905 152.29 262.939 151.413C259.973 150.536 254.05 146.754 249.4 154.379C249.426 154.352 241.783 151.176 237.344 157.731Z" fill="white"/>
<path d="M91.2652 66.1247H6.60864C6.60864 66.1247 7.48609 62.0972 11.0573 60.86C14.6285 59.6227 17.1995 60.8599 17.1995 56.6219C17.1995 52.3838 18.2612 50.2779 22.2799 49.4268C22.2799 49.4268 24.8158 40.3276 32.862 39.4765C40.9082 38.6253 46.6204 39.687 47.8927 44.5569C49.165 49.4268 50.4286 51.9626 52.7538 51.752C55.0791 51.5414 58.896 49.2162 60.8 53.6561C62.7041 58.096 62.7041 60.6757 65.6699 59.7982C68.6357 58.9208 74.5497 55.1126 79.2002 62.7377C79.2002 62.7377 86.8252 59.5613 91.2652 66.1247Z" fill="white"/>
</svg>
