<svg width="22" height="22" viewBox="0 0 22 22" fill="none" xmlns="http://www.w3.org/2000/svg">
<g clip-path="url(#clip0_298_445)">
<path d="M11.3125 0.75C5.51125 0.75 0.8125 5.5676 0.8125 11.5156C0.8125 16.2794 3.81812 20.303 7.99187 21.7294C8.51687 21.8236 8.71374 21.5007 8.71374 21.2181C8.71374 20.9624 8.70062 20.1146 8.70062 19.213C6.0625 19.7109 5.38 18.5536 5.17 17.948C5.05187 17.6385 4.54 16.6831 4.09375 16.4274C3.72625 16.2255 3.20125 15.7276 4.08062 15.7142C4.9075 15.7007 5.49812 16.4947 5.695 16.8176C6.63999 18.4459 8.14937 17.9884 8.75312 17.7058C8.84499 17.006 9.12062 16.535 9.42251 16.2659C7.08624 15.9968 4.645 15.0682 4.645 10.9504C4.645 9.77964 5.05187 8.81073 5.72125 8.05714C5.61625 7.788 5.24875 6.68453 5.82625 5.20426C5.82625 5.20426 6.70562 4.92166 8.71374 6.30773C9.55376 6.06551 10.4463 5.9444 11.3388 5.9444C12.2313 5.9444 13.1238 6.06551 13.9638 6.30773C15.9719 4.90821 16.8513 5.20426 16.8513 5.20426C17.4288 6.68453 17.0613 7.788 16.9563 8.05714C17.6256 8.81073 18.0325 9.76618 18.0325 10.9504C18.0325 15.0817 15.5781 15.9968 13.2419 16.2659C13.6225 16.6023 13.9506 17.2483 13.9506 18.2575C13.9506 19.6974 13.9375 20.8547 13.9375 21.2181C13.9375 21.5007 14.1344 21.8371 14.6594 21.7294C18.9334 20.25 21.8113 16.1408 21.8125 11.5156C21.8125 5.5676 17.1138 0.75 11.3125 0.75Z" fill="black"/>
</g>
<defs>
<clipPath id="clip0_298_445">
<rect width="21" height="21" fill="white" transform="translate(0.8125 0.75)"/>
</clipPath>
</defs>
</svg>
