<svg width="22" height="22" viewBox="0 0 22 22" fill="none" xmlns="http://www.w3.org/2000/svg">
<g clip-path="url(#clip0_298_374)">
<path d="M21.6264 9.35774C21.7514 10.0625 21.8137 10.7765 21.8125 11.4918C21.8125 14.6863 20.6476 17.3874 18.6204 19.2156H18.6231C16.8504 20.8208 14.4135 21.75 11.524 21.75C8.68317 21.75 5.95864 20.6438 3.94984 18.6747C1.94103 16.7056 0.8125 14.035 0.8125 11.2503C0.8125 8.46562 1.94103 5.79499 3.94984 3.82591C5.95864 1.85684 8.68317 0.750627 11.524 0.750627C14.1828 0.721604 16.7502 1.70061 18.6901 3.48317L15.6319 6.48083C14.5262 5.44825 13.051 4.88267 11.524 4.90588C8.72967 4.90588 6.35572 6.75382 5.50951 9.24225C5.06163 10.5463 5.06163 11.9583 5.50951 13.2623H5.51353C6.36376 15.7468 8.73369 17.5947 11.5281 17.5947C12.9714 17.5947 14.2113 17.2325 15.1727 16.592H15.1686C15.727 16.2296 16.2045 15.7601 16.5725 15.2117C16.9405 14.6633 17.1913 14.0475 17.3096 13.4014H11.524V9.35906L21.6264 9.35774Z" fill="black"/>
</g>
<defs>
<clipPath id="clip0_298_374">
<rect width="21" height="21" fill="white" transform="translate(0.8125 0.75)"/>
</clipPath>
</defs>
</svg>
