<svg width="48" height="75" viewBox="0 0 48 75" fill="none" xmlns="http://www.w3.org/2000/svg">
<path fill-rule="evenodd" clip-rule="evenodd" d="M8.96094 42.2031V74L22.8359 59.5469L37.8672 74V42.2031H8.96094ZM14.1638 45.6719V60.7032L22.5466 51.4532L32.3747 60.7032V45.6719H14.1638Z" fill="#151515"/>
<path d="M8.96094 74H8.7228V74.5919L9.13273 74.1649L8.96094 74ZM8.96094 42.2031V41.965H8.7228V42.2031H8.96094ZM22.8359 59.5469L23.001 59.3752L22.8292 59.21L22.6641 59.382L22.8359 59.5469ZM37.8672 74L37.7021 74.1716L38.1053 74.5593V74H37.8672ZM37.8672 42.2031H38.1053V41.965H37.8672V42.2031ZM14.1638 60.7032H13.9256V61.3206L14.3402 60.8631L14.1638 60.7032ZM14.1638 45.6719V45.4338H13.9256V45.6719H14.1638ZM22.5466 51.4532L22.7098 51.2798L22.5331 51.1134L22.3701 51.2933L22.5466 51.4532ZM32.3747 60.7032L32.2115 60.8766L32.6129 61.2543V60.7032H32.3747ZM32.3747 45.6719H32.6129V45.4338H32.3747V45.6719ZM9.19907 74V42.2031H8.7228V74H9.19907ZM22.6641 59.382L8.78915 73.8351L9.13273 74.1649L23.0077 59.7118L22.6641 59.382ZM38.0322 73.8283L23.001 59.3752L22.6709 59.7185L37.7021 74.1716L38.0322 73.8283ZM37.629 42.2031V74H38.1053V42.2031H37.629ZM8.96094 42.4413H37.8672V41.965H8.96094V42.4413ZM14.4019 60.7032V45.6719H13.9256V60.7032H14.4019ZM22.3701 51.2933L13.9873 60.5433L14.3402 60.8631L22.723 51.6131L22.3701 51.2933ZM32.5379 60.5298L22.7098 51.2798L22.3834 51.6266L32.2115 60.8766L32.5379 60.5298ZM32.1366 45.6719V60.7032H32.6129V45.6719H32.1366ZM14.1638 45.9101H32.3747V45.4338H14.1638V45.9101Z" fill="black"/>
<path fill-rule="evenodd" clip-rule="evenodd" d="M23.7031 47.4062C36.794 47.4062 47.4062 36.794 47.4062 23.7031C47.4062 10.6122 36.794 0 23.7031 0C10.6122 0 0 10.6122 0 23.7031C0 36.794 10.6122 47.4062 23.7031 47.4062ZM23.4139 41.0469C33.1522 41.0469 41.0467 33.1524 41.0467 23.4141C41.0467 13.6757 33.1522 5.78127 23.4139 5.78127C13.6756 5.78127 5.78111 13.6757 5.78111 23.4141C5.78111 33.1524 13.6756 41.0469 23.4139 41.0469Z" fill="#151515"/>
<circle cx="23.4141" cy="23.4141" r="11.8516" fill="#A6AEBB"/>
<ellipse cx="23.125" cy="23.125" rx="5.78125" ry="5.78125" fill="#151515"/>
</svg>
