<svg width="136" height="37" viewBox="0 0 136 37" fill="none" xmlns="http://www.w3.org/2000/svg">
<path fill-rule="evenodd" clip-rule="evenodd" d="M90.3394 20.352V29.5273L94.3431 25.3567L98.6805 29.5273V20.352H90.3394ZM91.8407 21.3529V25.6903L94.2597 23.0212L97.0957 25.6903V21.3529H91.8407Z" fill="#FEFEFE"/>
<path d="M90.3394 29.5273H90.2559V29.7346L90.3995 29.585L90.3394 29.5273ZM90.3394 20.352V20.2686H90.2559V20.352H90.3394ZM94.3431 25.3567L94.4009 25.2966L94.3408 25.2387L94.2829 25.2989L94.3431 25.3567ZM98.6805 29.5273L98.6227 29.5874L98.7639 29.7232V29.5273H98.6805ZM98.6805 20.352H98.7639V20.2686H98.6805V20.352ZM91.8407 25.6903H91.7573V25.9066L91.9025 25.7464L91.8407 25.6903ZM91.8407 21.3529V21.2695H91.7573V21.3529H91.8407ZM94.2597 23.0212L94.3168 22.9604L94.2549 22.9022L94.1979 22.9652L94.2597 23.0212ZM97.0957 25.6903L97.0385 25.7511L97.1791 25.8834V25.6903H97.0957ZM97.0957 21.3529H97.1791V21.2695H97.0957V21.3529ZM90.4228 29.5273V20.352H90.2559V29.5273H90.4228ZM94.2829 25.2989L90.2792 29.4695L90.3995 29.585L94.4033 25.4145L94.2829 25.2989ZM98.7383 29.4672L94.4009 25.2966L94.2853 25.4168L98.6227 29.5874L98.7383 29.4672ZM98.5971 20.352V29.5273H98.7639V20.352H98.5971ZM90.3394 20.4354H98.6805V20.2686H90.3394V20.4354ZM91.9241 25.6903V21.3529H91.7573V25.6903H91.9241ZM94.1979 22.9652L91.7789 25.6343L91.9025 25.7464L94.3215 23.0772L94.1979 22.9652ZM97.1528 25.6296L94.3168 22.9604L94.2025 23.0819L97.0385 25.7511L97.1528 25.6296ZM97.0123 21.3529V25.6903H97.1791V21.3529H97.0123ZM91.8407 21.4363H97.0957V21.2695H91.8407V21.4363Z" fill="black"/>
<path fill-rule="evenodd" clip-rule="evenodd" d="M94.5932 21.8534C98.3707 21.8534 101.433 18.7911 101.433 15.0136C101.433 11.2361 98.3707 8.17387 94.5932 8.17387C90.8157 8.17387 87.7534 11.2361 87.7534 15.0136C87.7534 18.7911 90.8157 21.8534 94.5932 21.8534ZM94.5098 20.0183C97.3198 20.0183 99.5979 17.7403 99.5979 14.9302C99.5979 12.1201 97.3198 9.84212 94.5098 9.84212C91.6997 9.84212 89.4216 12.1201 89.4216 14.9302C89.4216 17.7403 91.6997 20.0183 94.5098 20.0183Z" fill="#FEFEFE"/>
<circle cx="94.5097" cy="14.9302" r="3.41988" fill="#A6AEBB"/>
<circle cx="94.4265" cy="14.8468" r="1.66824" fill="#FEFEFE"/>
<path d="M1.29133 18.0548C1.29133 16.0197 1.75024 14.194 2.66806 12.5779C3.58588 10.9418 4.83291 9.66479 6.40916 8.74697C8.00537 7.82916 9.77117 7.37025 11.7066 7.37025C13.9812 7.37025 15.9664 7.91894 17.6624 9.01633C19.3584 10.1137 20.5954 11.67 21.3736 13.6852H18.1113C17.5327 12.4282 16.6947 11.4605 15.5973 10.7821C14.5199 10.1037 13.223 9.76455 11.7066 9.76455C10.25 9.76455 8.94314 10.1037 7.78589 10.7821C6.62864 11.4605 5.7208 12.4282 5.06237 13.6852C4.40393 14.9223 4.07472 16.3788 4.07472 18.0548C4.07472 19.7109 4.40393 21.1674 5.06237 22.4244C5.7208 23.6615 6.62864 24.6192 7.78589 25.2976C8.94314 25.976 10.25 26.3152 11.7066 26.3152C13.223 26.3152 14.5199 25.986 15.5973 25.3275C16.6947 24.6492 17.5327 23.6815 18.1113 22.4244H21.3736C20.5954 24.4197 19.3584 25.966 17.6624 27.0634C15.9664 28.1409 13.9812 28.6796 11.7066 28.6796C9.77117 28.6796 8.00537 28.2306 6.40916 27.3328C4.83291 26.415 3.58588 25.148 2.66806 23.5318C1.75024 21.9157 1.29133 20.09 1.29133 18.0548ZM28.1513 9.85434V16.8278H35.7532V19.0724H28.1513V26.2553H36.6511V28.5H25.4278V7.60968H36.6511V9.85434H28.1513ZM51.756 28.5L46.7878 19.9703H43.4957V28.5H40.7721V7.63961H47.5061C49.0824 7.63961 50.4092 7.90897 51.4867 8.44769C52.584 8.98641 53.4021 9.71467 53.9408 10.6325C54.4795 11.5503 54.7489 12.5978 54.7489 13.775C54.7489 15.2116 54.3299 16.4786 53.4919 17.576C52.6738 18.6734 51.4368 19.4016 49.7807 19.7608L55.0183 28.5H51.756ZM43.4957 17.7855H47.5061C48.9826 17.7855 50.09 17.4263 50.8282 16.708C51.5665 15.9698 51.9356 14.9921 51.9356 13.775C51.9356 12.538 51.5665 11.5802 50.8282 10.9019C50.1099 10.2235 49.0026 9.88427 47.5061 9.88427H43.4957V17.7855ZM71.8202 7.63961V9.85434H66.1338V28.5H63.4102V9.85434H57.6938V7.63961H71.8202ZM77.8963 26.2853H85.1989V28.5H75.1727V7.63961H77.8963V26.2853Z" fill="#FEFEFE"/>
<path d="M117.365 7.63961V9.85434H108.296V16.8876H115.659V19.1023H108.296V28.5H105.573V7.63961H117.365ZM135.259 7.63961L128.465 20.6287V28.5H125.742V20.6287L118.918 7.63961H121.941L127.089 18.2045L132.236 7.63961H135.259Z" fill="#FEFEFE"/>
</svg>
