<svg width="390" height="530" viewBox="0 0 390 530" fill="none" xmlns="http://www.w3.org/2000/svg">
<mask id="mask0_289_6853" style="mask-type:alpha" maskUnits="userSpaceOnUse" x="-3" y="-34" width="396" height="564">
<rect x="-3" y="-34" width="396" height="563.2" fill="black"/>
</mask>
<g mask="url(#mask0_289_6853)">
<rect x="-3" y="-34" width="396" height="563.2" fill="black"/>
<path fill-rule="evenodd" clip-rule="evenodd" d="M23.8512 554.878H64.1198C83.7487 527.104 79.5115 483.654 64.1198 455.054C51.1848 436.239 57.9877 396.45 64.1198 369.529C65.2 364.787 66.2525 360.318 67.2517 356.075C76.0188 318.851 80.6926 299.006 64.1198 264.204C57.4824 250.266 51.6516 207.004 64.1198 175.929C78.06 132.266 76.111 106.354 64.1198 49.4293C62.4835 41.6613 60.9046 34.6163 59.4512 28.1307C50.2536 -12.9116 46.0767 -31.55 64.1198 -69.1997H23.8512C5.80807 -31.55 9.98497 -12.9116 19.1826 28.1307C20.636 34.6163 22.2149 41.6613 23.8512 49.4293C35.8424 106.354 37.7914 132.266 23.8512 175.929C11.383 207.004 17.2138 250.266 23.8512 264.204C40.424 299.006 35.7502 318.851 26.9831 356.075C25.9839 360.318 24.9314 364.787 23.8512 369.529C17.7191 396.45 10.9162 436.239 23.8512 455.054C39.2429 483.654 43.4801 527.104 23.8512 554.878Z" fill="#FEFEFE"/>
<path fill-rule="evenodd" clip-rule="evenodd" d="M99.2013 554.878H139.47C159.099 527.104 154.862 483.654 139.47 455.054C126.535 436.239 133.338 396.45 139.47 369.529C140.55 364.787 141.603 360.318 142.602 356.075C151.369 318.851 156.043 299.006 139.47 264.204C132.832 250.266 127.002 207.004 139.47 175.929C153.41 132.266 151.461 106.354 139.47 49.4293C137.834 41.6613 136.255 34.6163 134.801 28.1307C125.604 -12.9116 121.427 -31.55 139.47 -69.1997H99.2013C81.1582 -31.55 85.3351 -12.9116 94.5327 28.1307C95.9861 34.6163 97.565 41.6613 99.2013 49.4293C111.193 106.354 113.142 132.266 99.2013 175.929C86.7331 207.004 92.5639 250.266 99.2013 264.204C115.774 299.006 111.1 318.851 102.333 356.075C101.334 360.318 100.282 364.787 99.2013 369.529C93.0692 396.45 86.2663 436.239 99.2013 455.054C114.593 483.654 118.83 527.104 99.2013 554.878Z" fill="#FEFEFE"/>
<path fill-rule="evenodd" clip-rule="evenodd" d="M174.551 554.878H214.82C234.449 527.104 230.212 483.654 214.82 455.054C201.885 436.239 208.688 396.45 214.82 369.529C215.9 364.787 216.953 360.318 217.952 356.075C226.719 318.851 231.393 299.006 214.82 264.204C208.183 250.266 202.352 207.004 214.82 175.929C228.76 132.266 226.811 106.354 214.82 49.4293C213.184 41.6613 211.605 34.6163 210.151 28.1307C200.954 -12.9116 196.777 -31.55 214.82 -69.1997H174.551C156.508 -31.55 160.685 -12.9116 169.883 28.1307C171.336 34.6163 172.915 41.6613 174.551 49.4293C186.543 106.354 188.492 132.266 174.551 175.929C162.083 207.004 167.914 250.266 174.551 264.204C191.124 299.006 186.45 318.851 177.683 356.075C176.684 360.318 175.632 364.787 174.551 369.529C168.419 396.45 161.616 436.239 174.551 455.054C189.943 483.654 194.18 527.104 174.551 554.878Z" fill="#FEFEFE"/>
<path fill-rule="evenodd" clip-rule="evenodd" d="M249.901 524.628H290.17C309.798 496.854 305.561 453.404 290.17 424.804C277.235 405.989 284.037 366.2 290.17 339.279C291.25 334.537 292.302 330.068 293.302 325.825C302.069 288.601 306.742 268.756 290.17 233.954C283.532 220.016 277.701 176.754 290.17 145.679C304.11 102.016 302.161 76.1043 290.17 19.1793C288.533 11.4113 286.954 4.36627 285.501 -2.11934C276.303 -43.1616 272.126 -61.8 290.17 -99.4497H249.901C231.858 -61.8 236.035 -43.1616 245.232 -2.11934C246.686 4.36627 248.265 11.4113 249.901 19.1793C261.892 76.1043 263.841 102.016 249.901 145.679C237.433 176.754 243.264 220.016 249.901 233.954C266.474 268.756 261.8 288.601 253.033 325.825C252.034 330.068 250.981 334.537 249.901 339.279C243.769 366.2 236.966 405.989 249.901 424.804C265.293 453.404 269.53 496.854 249.901 524.628Z" fill="#FEFEFE"/>
<path fill-rule="evenodd" clip-rule="evenodd" d="M325.251 524.628H365.519C385.148 496.854 380.911 453.404 365.519 424.804C352.584 405.989 359.387 366.2 365.519 339.279C366.599 334.537 367.652 330.068 368.651 325.825C377.418 288.601 382.092 268.756 365.519 233.954C358.882 220.016 353.051 176.754 365.519 145.679C379.459 102.016 377.51 76.1043 365.519 19.1793C363.883 11.4113 362.304 4.36627 360.851 -2.11934C351.653 -43.1616 347.476 -61.8 365.519 -99.4497H325.251C307.207 -61.8 311.384 -43.1616 320.582 -2.11934C322.035 4.36627 323.614 11.4113 325.251 19.1793C337.242 76.1043 339.191 102.016 325.251 145.679C312.782 176.754 318.613 220.016 325.251 233.954C341.823 268.756 337.15 288.601 328.383 325.825C327.383 330.068 326.331 334.537 325.251 339.279C319.118 366.2 312.316 405.989 325.251 424.804C340.642 453.404 344.88 496.854 325.251 524.628Z" fill="#FEFEFE"/>
</g>
</svg>
