<svg width="429" height="318" viewBox="0 0 429 318" fill="none" xmlns="http://www.w3.org/2000/svg">
<path d="M421.139 310.724H8V317.414H421.139V310.724Z" fill="#263238"/>
<path d="M420.919 212.014C418.825 193.757 411.979 194.552 409.843 176.295C407.707 158.037 414.502 157.242 412.366 138.984C410.23 120.727 403.426 121.522 401.28 103.265C399.133 85.0073 405.949 84.2117 403.803 65.9542C401.656 47.6967 394.862 48.4923 392.727 30.2453L391.68 33.9407C389.586 48.597 383.598 49.3507 382.143 66.3939C380.572 84.7142 387.377 85.3004 385.828 103.631C384.278 121.962 377.453 121.376 375.861 139.707C374.27 158.037 381.096 158.613 379.546 176.944C377.997 195.275 371.171 194.741 369.591 213.019C368.928 218.971 369.469 224.994 371.182 230.732C372.595 234.009 378.562 246.132 390.591 249.649C391.354 249.871 392.13 250.046 392.915 250.173V311.394H395.668V250.393C406.723 250.466 414.072 239.568 419.652 230.45L419.726 230.335C421.376 224.374 421.782 218.138 420.919 212.014ZM408.482 204.791L394.82 230.146V249.22H393.648V230.167L378.437 205.189C378.355 205.049 378.332 204.884 378.371 204.727C378.41 204.571 378.509 204.436 378.646 204.351C378.787 204.271 378.953 204.249 379.11 204.29C379.267 204.331 379.401 204.432 379.484 204.571L393.69 227.885V155.985C393.583 155.949 393.489 155.884 393.418 155.797L381.263 140.094C381.216 140.033 381.181 139.963 381.161 139.888C381.14 139.813 381.135 139.735 381.144 139.659C381.154 139.582 381.179 139.508 381.217 139.441C381.256 139.373 381.307 139.314 381.368 139.267C381.429 139.219 381.499 139.185 381.574 139.164C381.648 139.144 381.726 139.138 381.803 139.148C381.88 139.158 381.954 139.182 382.021 139.221C382.089 139.259 382.148 139.31 382.195 139.372L393.711 154.206V85.8448L385.535 69.4926C385.474 69.3494 385.472 69.1883 385.529 69.0436C385.586 68.899 385.697 68.7821 385.838 68.7179C385.971 68.6606 386.121 68.6545 386.258 68.7009C386.395 68.7473 386.51 68.8429 386.581 68.9692L393.7 83.2172V59.3903C393.7 59.2348 393.762 59.0857 393.872 58.9757C393.982 58.8658 394.131 58.804 394.286 58.804C394.442 58.804 394.591 58.8658 394.701 58.9757C394.811 59.0857 394.873 59.2348 394.873 59.3903V82.5681L399.625 70.55C399.654 70.4778 399.696 70.4119 399.749 70.356C399.803 70.3001 399.867 70.2553 399.938 70.2242C400.009 70.1931 400.086 70.1762 400.163 70.1747C400.241 70.1731 400.318 70.1868 400.39 70.215C400.462 70.2431 400.528 70.2853 400.584 70.3389C400.64 70.3926 400.684 70.4567 400.715 70.5277C400.747 70.5987 400.763 70.675 400.765 70.7525C400.767 70.83 400.753 70.907 400.725 70.9792L394.873 85.782V153.4L406.001 140.199C406.05 140.139 406.111 140.091 406.179 140.055C406.248 140.019 406.323 139.997 406.399 139.991C406.476 139.984 406.553 139.992 406.627 140.015C406.701 140.038 406.769 140.076 406.828 140.125C406.887 140.175 406.936 140.235 406.972 140.304C407.007 140.372 407.029 140.447 407.036 140.524C407.043 140.6 407.034 140.678 407.011 140.751C406.988 140.825 406.951 140.893 406.901 140.952L394.873 155.232V227.665L407.498 204.225C407.573 204.09 407.699 203.989 407.848 203.946C407.997 203.903 408.158 203.92 408.294 203.995C408.358 204.035 408.415 204.087 408.459 204.148C408.504 204.21 408.536 204.28 408.554 204.354C408.571 204.428 408.574 204.504 408.562 204.579C408.549 204.654 408.522 204.726 408.482 204.791Z" fill="#263238"/>
<path d="M428.624 311.373L425.358 310.326C423.672 309.813 423.117 308.285 421.442 305.228C419.767 302.171 415.287 306.756 411.926 306.756C408.566 306.756 412.481 303.187 410.806 300.13C409.131 297.073 404.651 300.643 400.735 299.617C396.82 298.591 402.41 289.42 396.82 289.933C395.773 290.027 395.009 290.854 394.423 292.132C393.889 290.854 393.187 290.038 392.245 289.933C387.147 289.42 392.245 298.601 388.675 299.617C385.105 300.632 381.033 297.073 379.505 300.13C377.976 303.187 381.535 306.756 378.458 306.756C375.38 306.756 371.318 302.171 369.79 305.228C368.261 308.285 367.748 309.813 366.22 310.326L363.247 311.373H428.624Z" fill="#263238"/>
<path d="M139.686 161.858V161.806H139.624V161.754C138.168 161.607 123.104 160.32 109.358 167.459C115.428 159.83 118.225 150.106 117.137 140.418C113.829 107.232 82.506 88.2317 80.0982 86.8184V86.7347H79.9517V86.8917C77.5334 88.305 46.2213 107.306 42.9027 140.492C42.1937 146.916 43.1828 153.413 45.7712 159.335C28.1418 148.793 7.58116 150.573 5.68631 150.751H5.47694V150.814C4.54522 152.908 -7.22166 181.257 6.91115 205.251C19.5574 226.744 46.0748 221.07 53.2773 219.049C59.3282 225.404 70.3623 239.861 75.2617 264.557H68.3941L71.7127 311.31H87.1646L90.4832 264.62H82.3909C86.0981 247.887 92.7861 231.958 102.135 217.594C109.337 219.395 128.862 222.431 138.482 206.078C149.956 186.554 140.398 163.607 139.686 161.858ZM79.5329 161.68L63.2016 138.995C63.167 138.948 63.1419 138.895 63.1279 138.839C63.1139 138.782 63.1112 138.724 63.12 138.666C63.1287 138.609 63.1488 138.554 63.179 138.504C63.2092 138.454 63.2489 138.411 63.2959 138.377C63.3917 138.306 63.5117 138.277 63.6294 138.294C63.7471 138.312 63.853 138.376 63.924 138.471L79.512 160.173V137.215L63.1807 114.54C63.1102 114.444 63.0805 114.324 63.0981 114.206C63.1158 114.088 63.1794 113.983 63.2749 113.912C63.373 113.845 63.493 113.818 63.61 113.838C63.727 113.857 63.832 113.921 63.903 114.016L79.5329 135.739V102.239C79.5535 102.122 79.6183 102.018 79.7138 101.948C79.8094 101.877 79.9283 101.847 80.0459 101.862C80.1413 101.875 80.2298 101.919 80.2979 101.987C80.366 102.055 80.4099 102.143 80.4227 102.239V134.577L97.3821 113.064C97.4544 112.973 97.559 112.913 97.6741 112.897C97.7892 112.882 97.9059 112.911 97.9998 112.98C98.0891 113.054 98.1466 113.159 98.1602 113.274C98.1739 113.389 98.1427 113.505 98.0731 113.597L80.4018 136.095V159.126L97.3612 137.613C97.397 137.566 97.4419 137.527 97.4932 137.497C97.5445 137.468 97.6011 137.45 97.6597 137.443C97.7183 137.436 97.7777 137.441 97.8343 137.458C97.891 137.474 97.9437 137.502 97.9893 137.54C98.0347 137.575 98.0726 137.62 98.1008 137.67C98.1291 137.72 98.1471 137.776 98.1539 137.833C98.1607 137.891 98.1562 137.949 98.1405 138.004C98.1248 138.06 98.0984 138.112 98.0626 138.157L80.4018 160.56V179.99L97.3612 158.488C97.4335 158.397 97.5381 158.337 97.6532 158.321C97.7683 158.306 97.885 158.335 97.9789 158.404C98.0682 158.477 98.1257 158.583 98.1393 158.698C98.153 158.813 98.1217 158.929 98.0521 159.021L80.4018 181.425V181.854H78.9676L63.1702 159.869C63.0997 159.773 63.07 159.654 63.0877 159.536C63.1053 159.418 63.1689 159.312 63.2645 159.241C63.3625 159.174 63.4825 159.148 63.5995 159.168C63.7165 159.187 63.8215 159.251 63.8926 159.346L79.512 181.11V161.639L79.5329 161.68ZM53.539 217.05L51.9373 214.851L28.906 208.444C28.8198 208.41 28.7492 208.345 28.7078 208.262C28.6665 208.179 28.6572 208.084 28.6818 207.994C28.7065 207.905 28.7633 207.827 28.8414 207.777C28.9194 207.727 29.0133 207.707 29.1049 207.722L51.2254 213.878L41.6255 200.75L18.6466 194.343C18.5512 194.316 18.4702 194.253 18.4212 194.166C18.3722 194.08 18.3592 193.978 18.3849 193.882C18.4117 193.79 18.474 193.711 18.5583 193.664C18.6426 193.617 18.7421 193.605 18.8351 193.631L40.9137 199.787L29.5655 184.251L6.53428 177.844C6.48916 177.833 6.44671 177.813 6.40946 177.786C6.37221 177.758 6.34093 177.723 6.31747 177.683C6.29402 177.643 6.27888 177.599 6.27297 177.552C6.26705 177.506 6.27047 177.46 6.28303 177.415C6.29519 177.368 6.31652 177.324 6.34578 177.286C6.37505 177.247 6.41167 177.215 6.45353 177.19C6.49539 177.166 6.54165 177.15 6.58966 177.144C6.63766 177.137 6.68644 177.141 6.73319 177.153L28.8118 183.309L12.8993 161.471C12.8415 161.39 12.8179 161.29 12.8336 161.192C12.8493 161.094 12.903 161.006 12.983 160.948C13.0588 160.891 13.1533 160.867 13.2469 160.878C13.3405 160.89 13.426 160.937 13.4855 161.01L30.0052 183.602L29.8482 161.22C29.8393 161.171 29.8404 161.121 29.8515 161.072C29.8627 161.024 29.8836 160.978 29.9129 160.938C29.9423 160.898 29.9796 160.864 30.0225 160.839C30.0653 160.813 30.1129 160.797 30.1623 160.791C30.2104 160.782 30.26 160.782 30.3078 160.793C30.3557 160.803 30.401 160.823 30.4411 160.852C30.4811 160.88 30.515 160.916 30.5408 160.958C30.5667 160.999 30.5839 161.046 30.5915 161.094C30.6021 161.135 30.6021 161.179 30.5915 161.22L30.8113 184.586L42.149 200.111L41.9919 177.719C41.983 177.67 41.9842 177.619 41.9953 177.571C42.0064 177.522 42.0273 177.477 42.0567 177.436C42.0861 177.396 42.1234 177.363 42.1662 177.337C42.2091 177.312 42.2566 177.296 42.306 177.289C42.3542 177.28 42.4037 177.281 42.4516 177.292C42.4995 177.302 42.5448 177.322 42.5848 177.35C42.6248 177.379 42.6588 177.415 42.6846 177.456C42.7104 177.498 42.7277 177.545 42.7352 177.593C42.7459 177.634 42.7459 177.677 42.7352 177.719L42.9027 201.106L52.3246 214.192L52.1571 191.799C52.1623 191.702 52.204 191.61 52.2739 191.542C52.3437 191.474 52.4366 191.435 52.534 191.433C52.6312 191.433 52.7244 191.471 52.7931 191.54C52.8618 191.609 52.9004 191.702 52.9004 191.799L53.0679 215.176L54.4393 217.05H53.539ZM56.1562 217.05C59.5062 211.951 69.1793 195.212 63.4005 179.1C67.8924 182.065 72.699 184.523 77.7323 186.429V259.124C72.4246 236.846 62.427 223.53 56.3446 217.05H56.1562ZM81.2812 254.643V186.764C86.0718 185.018 90.6651 182.772 94.9848 180.064C85.7618 194.845 96.0317 211.92 98.8164 215.95C91.0669 227.897 85.1559 240.94 81.2812 254.643ZM138.776 183.78L120.131 189.014L110.918 201.577L128.83 196.573C128.869 196.562 128.91 196.559 128.951 196.564C128.991 196.569 129.03 196.582 129.065 196.603C129.1 196.623 129.131 196.651 129.156 196.683C129.18 196.716 129.197 196.753 129.207 196.793C129.227 196.869 129.216 196.95 129.177 197.018C129.137 197.087 129.073 197.137 128.998 197.159L110.342 202.393L102.564 213.04L120.476 208.047C120.552 208.027 120.633 208.038 120.702 208.077C120.77 208.116 120.821 208.18 120.843 208.256C120.862 208.334 120.852 208.416 120.813 208.486C120.774 208.556 120.71 208.609 120.633 208.633L101.988 213.867L101.004 215.207C100.826 215.103 100.648 215.008 100.491 214.893L101.046 214.129L101.182 195.16C101.185 195.08 101.218 195.004 101.274 194.948C101.33 194.891 101.406 194.859 101.486 194.856C101.566 194.856 101.644 194.888 101.701 194.945C101.757 195.002 101.789 195.079 101.789 195.16L101.664 213.323L109.442 202.687L109.578 183.717C109.578 183.637 109.61 183.559 109.667 183.503C109.724 183.446 109.801 183.414 109.882 183.414C109.962 183.416 110.037 183.449 110.094 183.505C110.15 183.562 110.183 183.637 110.185 183.717L110.049 201.891L119.251 189.328L119.387 170.349C119.401 170.279 119.438 170.216 119.492 170.171C119.546 170.126 119.615 170.101 119.686 170.101C119.757 170.101 119.825 170.126 119.88 170.171C119.934 170.216 119.971 170.279 119.984 170.349L119.796 188.439L133.196 170.108C133.244 170.045 133.314 170.003 133.392 169.991C133.471 169.98 133.55 169.999 133.614 170.045C133.646 170.067 133.673 170.095 133.694 170.127C133.715 170.16 133.729 170.196 133.736 170.234C133.743 170.272 133.742 170.311 133.734 170.348C133.725 170.386 133.71 170.422 133.688 170.453L120.738 188.177L138.639 183.204C138.716 183.185 138.797 183.196 138.865 183.235C138.933 183.274 138.984 183.338 139.006 183.414C139.029 183.484 139.023 183.562 138.99 183.628C138.957 183.695 138.899 183.746 138.828 183.77L138.776 183.78Z" fill="#263238"/>
<path d="M289.339 97.8735L286.565 89.5613L280.723 81.5632L277.373 90.8908L285.026 100.951L289.339 97.8735Z" fill="white"/>
<path d="M284.921 101.674L276.787 90.985L280.556 80.4535L287.067 89.4042L289.957 98.0828L284.921 101.674ZM277.928 90.8071L285.11 100.229L288.69 97.6746L286.062 89.8125L280.828 82.6624L277.928 90.8071Z" fill="#263238"/>
<path d="M330.691 123.71L307.408 124.527C306.548 124.56 305.696 124.346 304.954 123.91C304.212 123.474 303.611 122.834 303.221 122.067L289.339 97.8735C289.339 97.8735 285.34 100.03 285.026 100.951C284.712 101.873 294.301 125.134 298.416 135.498C298.76 136.371 299.37 137.114 300.158 137.623C300.947 138.132 301.875 138.381 302.812 138.335L328.848 137.288" fill="#151515"/>
<path d="M302.624 138.88C301.618 138.884 300.634 138.588 299.798 138.028C298.962 137.468 298.313 136.671 297.934 135.739C297.097 133.645 296.039 130.986 294.877 128.107C285.801 105.463 284.335 101.433 284.534 100.826C284.869 99.7788 287.832 98.1352 289.088 97.4547L289.538 97.2139L303.671 121.847C304.017 122.529 304.551 123.098 305.209 123.487C305.867 123.877 306.623 124.07 307.387 124.045L330.67 123.229V124.276L307.387 125.092C306.428 125.123 305.48 124.882 304.652 124.396C303.824 123.911 303.15 123.201 302.708 122.349L289.098 98.6272C287.791 99.2768 286.585 100.113 285.518 101.108C285.801 102.752 291.799 117.743 295.809 127.72C296.96 130.599 298.028 133.247 298.866 135.352C299.169 136.124 299.707 136.782 300.404 137.232C301.1 137.683 301.921 137.904 302.75 137.864L328.785 136.817V137.864L302.75 138.911L302.624 138.88Z" fill="#263238"/>
<path d="M290.906 101.843L287.26 103.354L287.561 104.08L291.207 102.568L290.906 101.843Z" fill="#263238"/>
<path d="M299.682 142.962H79.5244V309.384H299.682V142.962Z" fill="#151515"/>
<path d="M299.682 309.876H79.5244C79.3856 309.876 79.2525 309.821 79.1543 309.723C79.0561 309.625 79.001 309.492 79.001 309.353V142.9C79.001 142.761 79.0561 142.628 79.1543 142.529C79.2525 142.431 79.3856 142.376 79.5244 142.376H299.682C299.819 142.381 299.95 142.438 300.047 142.535C300.144 142.632 300.201 142.762 300.206 142.9V309.353C300.206 309.492 300.151 309.625 300.052 309.723C299.954 309.821 299.821 309.876 299.682 309.876ZM80.0688 308.829H299.18V143.423H80.0688V308.829Z" fill="#263238"/>
<path d="M79.5244 142.962L177.156 47.613C180.126 45.0968 183.885 43.7019 187.778 43.6713C191.67 43.6407 195.45 44.9763 198.46 47.4455L299.682 142.962H79.5244Z" fill="#151515"/>
<path d="M299.682 143.486H79.5243C79.4206 143.487 79.3191 143.456 79.2331 143.398C79.1472 143.34 79.0808 143.258 79.0427 143.161C79.0035 143.065 78.9936 142.959 79.014 142.856C79.0345 142.754 79.0845 142.66 79.1579 142.586L176.789 47.2466C179.85 44.6434 183.726 43.1966 187.744 43.1583C191.761 43.1201 195.665 44.4928 198.774 47.0372L300.017 142.586C300.095 142.657 300.148 142.751 300.171 142.854C300.193 142.957 300.184 143.064 300.143 143.161C300.105 143.254 300.041 143.333 299.96 143.391C299.878 143.448 299.782 143.481 299.682 143.486ZM80.8119 142.439H298.363L198.104 47.8224C195.19 45.4383 191.531 44.1523 187.767 44.1887C184.002 44.225 180.369 45.5814 177.501 48.0213L80.8119 142.439Z" fill="#263238"/>
<path d="M281.425 63.5255H97.782V218.505H281.425V63.5255Z" fill="white"/>
<path d="M281.425 219.018H97.782C97.6432 219.018 97.51 218.963 97.4119 218.865C97.3137 218.766 97.2585 218.633 97.2585 218.494V63.5569C97.2585 63.4181 97.3137 63.2849 97.4119 63.1868C97.51 63.0886 97.6432 63.0335 97.782 63.0335H281.425C281.564 63.0335 281.697 63.0886 281.795 63.1868C281.893 63.2849 281.948 63.4181 281.948 63.5569V218.494C281.948 218.633 281.893 218.766 281.795 218.865C281.697 218.963 281.564 219.018 281.425 219.018ZM98.3054 217.971H280.901V64.0803H98.3054V217.971Z" fill="#263238"/>
<path d="M273.374 209.073H105.874C105.769 209.073 105.668 209.031 105.593 208.956C105.518 208.881 105.477 208.78 105.477 208.675V73.3452C105.479 73.2415 105.522 73.143 105.597 73.0706C105.671 72.9983 105.771 72.9578 105.874 72.9578H273.374C273.475 72.9629 273.571 73.0053 273.643 73.0769C273.714 73.1485 273.757 73.2441 273.762 73.3452V208.675C273.762 208.778 273.721 208.878 273.649 208.952C273.577 209.027 273.478 209.07 273.374 209.073ZM106.241 208.329H272.977V73.743H106.241V208.329Z" fill="#151515"/>
<path d="M268.025 205.398H111.182C110.904 205.398 110.638 205.288 110.442 205.091C110.245 204.895 110.135 204.629 110.135 204.351V77.6793C110.135 77.4016 110.245 77.1353 110.442 76.939C110.638 76.7427 110.904 76.6324 111.182 76.6324H268.025C268.302 76.6324 268.569 76.7427 268.765 76.939C268.961 77.1353 269.072 77.4016 269.072 77.6793V204.351C269.072 204.629 268.961 204.895 268.765 205.091C268.569 205.288 268.302 205.398 268.025 205.398ZM112.229 203.304H266.978V78.7261H112.229V203.304Z" fill="#151515"/>
<path d="M79.5244 143.915L189.603 227.121L299.672 143.915V310.326H79.5244V143.915Z" fill="#151515"/>
<path d="M299.682 310.85H79.5244C79.3856 310.85 79.2525 310.795 79.1543 310.696C79.0561 310.598 79.001 310.465 79.001 310.326V143.873C79.0068 143.778 79.0366 143.686 79.0876 143.605C79.1386 143.524 79.2092 143.458 79.2928 143.412C79.3764 143.366 79.4703 143.342 79.5657 143.342C79.6611 143.342 79.755 143.366 79.8385 143.413L189.603 226.377L299.358 143.423C299.466 143.337 299.604 143.298 299.741 143.314C299.879 143.33 300.004 143.399 300.091 143.507C300.164 143.599 300.204 143.713 300.206 143.831V310.284C300.213 310.353 300.206 310.423 300.187 310.489C300.167 310.555 300.134 310.617 300.09 310.671C300.046 310.724 299.992 310.768 299.931 310.801C299.87 310.834 299.803 310.854 299.735 310.86L299.682 310.85ZM80.0479 309.803H299.159V144.962L189.917 227.539C189.826 227.606 189.716 227.642 189.603 227.642C189.491 227.642 189.381 227.606 189.289 227.539L80.0688 144.962L80.0479 309.803Z" fill="#263238"/>
<path d="M79.5244 310.326L174.298 215.553H204.898L299.672 310.326H79.5244Z" fill="#151515"/>
<path d="M299.682 310.85H79.5245C79.4226 310.849 79.3231 310.819 79.2378 310.763C79.1525 310.707 79.0849 310.629 79.0429 310.536C79.0009 310.439 78.9894 310.333 79.01 310.23C79.0306 310.127 79.0823 310.033 79.1581 309.96L173.932 215.186C173.978 215.136 174.035 215.096 174.098 215.069C174.161 215.042 174.229 215.028 174.298 215.029H204.898C204.967 215.028 205.035 215.042 205.098 215.069C205.161 215.096 205.218 215.136 205.265 215.186L300.049 309.96C300.12 310.035 300.168 310.13 300.189 310.231C300.209 310.333 300.201 310.439 300.164 310.536C300.122 310.629 300.054 310.707 299.969 310.763C299.884 310.819 299.784 310.849 299.682 310.85ZM80.7912 309.803H298.416L204.647 216.076H174.518L80.7912 309.803Z" fill="#263238"/>
<path d="M324.514 112.08L324.211 120.905L334.732 119.23L335.098 103.841L324.514 112.08Z" fill="white"/>
<path d="M323.666 121.522L323.991 111.818L335.653 102.752L335.245 119.68L323.666 121.522ZM325.027 112.341L324.755 120.287L334.177 118.78L334.501 104.929L325.027 112.341Z" fill="#263238"/>
<path d="M315.616 308.212C315.397 307.596 315.218 306.966 315.082 306.327L314.485 301.899L306.738 300.664L300.279 305.259L296.175 307.521H296.092C295.082 307.93 294.117 308.442 293.213 309.049C292.532 309.646 292.867 310.316 294.909 310.316H315.197C315.197 310.316 316.181 309.74 315.616 308.212Z" fill="white"/>
<path d="M315.302 310.85H294.877C293.464 310.85 292.626 310.536 292.396 309.918C292.324 309.689 292.327 309.443 292.407 309.217C292.486 308.99 292.636 308.796 292.836 308.662C293.783 308.016 294.797 307.476 295.861 307.05H295.976L299.996 304.841L306.581 300.151L314.956 301.491L315.595 306.296C315.734 306.894 315.905 307.485 316.108 308.065C316.35 308.527 316.418 309.06 316.299 309.568C316.179 310.076 315.881 310.523 315.459 310.829L315.302 310.85ZM293.39 309.604C293.87 309.759 294.374 309.827 294.877 309.803H314.988C315.145 309.646 315.417 309.227 315.103 308.4C314.872 307.761 314.683 307.107 314.537 306.442L313.993 302.36L306.843 301.208L300.562 305.689L296.238 308.034C295.291 308.41 294.386 308.884 293.537 309.447C293.481 309.489 293.435 309.543 293.401 309.604H293.39Z" fill="#263238"/>
<path d="M315.741 308.829H293.527C293.403 308.904 293.287 308.992 293.181 309.091C292.501 309.688 292.836 310.358 294.877 310.358H315.166C315.4 310.187 315.58 309.951 315.682 309.68C315.785 309.408 315.805 309.113 315.741 308.829Z" fill="white"/>
<path d="M315.302 310.85H294.877C293.464 310.85 292.626 310.536 292.396 309.918C292.324 309.689 292.327 309.443 292.407 309.217C292.486 308.99 292.636 308.795 292.836 308.662C292.963 308.552 293.1 308.454 293.244 308.369L293.37 308.274H316.191L316.265 308.725C316.35 309.117 316.317 309.527 316.167 309.9C316.018 310.273 315.76 310.593 315.427 310.818L315.302 310.85ZM293.39 309.604C293.87 309.759 294.374 309.827 294.877 309.803H314.977C315.103 309.67 315.187 309.502 315.218 309.321H293.684L293.527 309.447C293.471 309.489 293.424 309.543 293.39 309.604Z" fill="#263238"/>
<path d="M349.796 308.212C349.578 307.595 349.397 306.965 349.252 306.327L348.666 301.899L340.919 300.664L334.459 305.259L330.356 307.521H330.272C329.259 307.93 328.291 308.442 327.383 309.049C326.702 309.646 327.048 310.316 329.079 310.316H349.367C349.367 310.316 350.382 309.74 349.796 308.212Z" fill="white"/>
<path d="M349.514 310.85H329.079C327.665 310.85 326.838 310.536 326.598 309.918C326.525 309.689 326.529 309.443 326.608 309.217C326.687 308.99 326.838 308.796 327.037 308.662C327.984 308.016 328.999 307.476 330.063 307.05H330.188L334.198 304.841L340.793 300.151L349.168 301.491L349.807 306.296C349.942 306.894 350.11 307.485 350.309 308.065C350.556 308.526 350.627 309.061 350.507 309.57C350.388 310.078 350.086 310.526 349.66 310.829L349.514 310.85ZM327.603 309.604C328.077 309.764 328.578 309.832 329.079 309.803H349.189C349.346 309.646 349.629 309.227 349.304 308.4C349.083 307.758 348.898 307.105 348.749 306.442L348.195 302.36L341.044 301.208L334.763 305.689L330.44 308.034C329.493 308.41 328.588 308.884 327.739 309.447C327.685 309.492 327.64 309.545 327.603 309.604Z" fill="#263238"/>
<path d="M349.953 308.829H327.739C327.613 308.907 327.494 308.995 327.383 309.091C326.702 309.688 327.048 310.358 329.079 310.358H349.367C349.603 310.187 349.783 309.952 349.888 309.681C349.992 309.409 350.014 309.114 349.953 308.829Z" fill="white"/>
<path d="M349.514 310.85H329.079C327.665 310.85 326.838 310.536 326.598 309.918C326.525 309.689 326.529 309.443 326.608 309.217C326.687 308.99 326.838 308.795 327.037 308.662C327.165 308.552 327.301 308.454 327.446 308.369L327.582 308.274H350.404L350.466 308.725C350.555 309.116 350.523 309.525 350.375 309.899C350.228 310.272 349.971 310.593 349.639 310.818L349.514 310.85ZM327.603 309.604C328.077 309.764 328.578 309.832 329.079 309.803H349.189C349.314 309.669 349.398 309.502 349.43 309.321H327.896L327.728 309.447C327.675 309.492 327.629 309.545 327.592 309.604H327.603Z" fill="#263238"/>
<path d="M312.768 178.525L311.837 190.04C311.837 190.04 305.398 235.852 305.702 241.117C306.005 246.383 306.749 300.716 306.749 300.716L314.496 301.951L323.206 241.683L335.433 180.441L312.768 178.525Z" fill="#151515"/>
<path d="M314.904 302.548L306.194 301.103V300.664C306.194 300.119 305.503 246.299 305.199 241.096C304.896 235.893 311.072 191.789 311.334 189.915L312.297 177.959L336.03 179.907L335.915 180.482L323.677 241.735L314.904 302.548ZM307.241 300.214L314.024 301.26L322.651 241.515L334.774 180.796L313.26 179.017L312.37 189.957C312.308 190.449 305.943 235.81 306.236 240.96C306.529 246.111 307.157 295.021 307.241 300.214Z" fill="#263238"/>
<path d="M312.151 299.523L311.428 299.407C311.428 299.24 314.778 282.186 314.778 273.005C314.778 263.824 314.778 255.051 317.019 246.425C319.227 237.966 322.253 220.525 322.253 220.347L323.028 220.484C323.028 220.661 320.013 238.123 317.793 246.655C315.574 255.187 315.616 263.814 315.616 273.037C315.616 282.26 312.182 299.407 312.151 299.523Z" fill="#263238"/>
<path d="M328.492 175.698C333.612 173.029 339.108 171.238 340.657 174.808C343.798 181.938 340.039 192.783 340.039 192.783L342.835 242.761L348.394 301.93L339.652 301.847C339.652 301.847 328.356 250.927 326.503 247.828C324.65 244.729 321.709 201.148 321.709 201.148L315.846 195.767" fill="#151515"/>
<path d="M349.011 302.454L339.275 302.36L339.181 301.951C335.287 284.374 327.529 250.487 326.095 248.09C324.253 245.022 321.604 206.759 321.248 201.389L315.49 196.154L316.192 195.379L322.264 200.876V201.085C323.436 218.557 325.666 245.336 326.985 247.535C328.796 250.56 338.951 296.141 340.102 301.302L347.849 301.376L342.343 242.751L339.495 192.626V192.521C339.495 192.417 343.107 181.781 340.123 174.934C339.989 174.591 339.78 174.281 339.512 174.028C339.245 173.774 338.924 173.583 338.574 173.468C336.669 172.788 333.245 173.699 328.681 176.075L328.199 175.143C333.088 172.589 336.7 171.699 338.93 172.484C339.415 172.647 339.859 172.913 340.231 173.263C340.603 173.614 340.895 174.041 341.086 174.515C344.101 181.466 340.908 191.59 340.511 192.762L343.348 242.646L349.011 302.454Z" fill="#263238"/>
<path d="M344.572 299.114C344.572 298.905 342.301 277.706 338.982 262.61C336.47 251.167 336.658 250.476 336.888 249.44C337.026 248.964 337.086 248.469 337.066 247.974V245.881C337.129 242.321 337.223 236.94 336.312 233.936C334.92 229.277 334.219 222.63 334.03 213.606H334.815C334.952 222.556 335.695 229.131 337.066 233.726C338.008 236.867 337.914 242.3 337.851 245.902V247.995C337.869 248.561 337.802 249.125 337.652 249.67C337.422 250.529 337.234 251.199 339.746 262.463C343.075 277.601 345.326 298.842 345.357 299.104L344.572 299.114Z" fill="#263238"/>
<path d="M334.868 207.816H334.083V205.073C334.397 190.26 334.177 188.617 334.083 188.439L334.438 188.303L334.083 188.125L334.533 187.915C334.93 188.009 335.192 188.072 334.826 205.094C334.889 206.026 334.878 206.937 334.868 207.816Z" fill="#263238"/>
<path d="M317.709 196.384C317.652 196.383 317.596 196.37 317.544 196.347C317.492 196.324 317.445 196.29 317.406 196.248L315.595 194.155C315.548 194.105 315.516 194.044 315.503 193.977C315.49 193.91 315.496 193.841 315.521 193.778L316.715 190.187L316.956 184.953C316.957 184.901 316.969 184.85 316.99 184.803C317.011 184.755 317.042 184.713 317.08 184.678C317.118 184.643 317.163 184.616 317.212 184.598C317.26 184.58 317.312 184.573 317.364 184.576C317.466 184.581 317.562 184.625 317.632 184.699C317.702 184.773 317.741 184.872 317.741 184.973L317.49 190.208C317.5 190.246 317.5 190.285 317.49 190.323L316.348 193.746L318.023 195.704C318.095 195.776 318.135 195.874 318.135 195.976C318.135 196.078 318.095 196.176 318.023 196.248C317.985 196.293 317.936 196.328 317.882 196.352C317.827 196.375 317.769 196.387 317.709 196.384Z" fill="#263238"/>
<path d="M323.017 190.794C317.165 190.794 314.789 188.491 314.642 188.376C314.607 188.341 314.579 188.299 314.56 188.253C314.541 188.208 314.531 188.159 314.531 188.109C314.531 188.059 314.541 188.01 314.56 187.964C314.579 187.919 314.607 187.877 314.642 187.842C314.715 187.77 314.812 187.73 314.914 187.73C315.016 187.73 315.114 187.77 315.186 187.842C315.186 187.842 318.222 190.731 325.791 189.852C325.841 189.845 325.891 189.847 325.94 189.86C325.988 189.872 326.034 189.894 326.074 189.924C326.114 189.954 326.148 189.992 326.173 190.036C326.198 190.079 326.214 190.127 326.221 190.176C326.236 190.278 326.21 190.381 326.149 190.463C326.088 190.546 325.997 190.601 325.896 190.616C324.941 190.734 323.979 190.793 323.017 190.794Z" fill="#263238"/>
<path d="M333.58 185.486C339.485 184.335 339.861 182.67 341.882 181.299C341.902 179.073 341.486 176.864 340.657 174.798C339.108 171.228 333.612 173.018 328.492 175.688L326.085 179.613L312.821 178.567L312.402 183.801C319.22 186.072 326.489 186.651 333.58 185.486Z" fill="#263238"/>
<path d="M314.087 182.126L313.962 184.199L317.333 184.974L317.584 182.262L314.087 182.126Z" fill="white"/>
<path d="M317.709 185.466L313.585 184.513L313.752 181.718L318.044 181.885L317.709 185.466ZM314.401 183.895L317.008 184.492L317.186 182.639L314.495 182.534L314.401 183.895Z" fill="#263238"/>
<path d="M337.59 185.193L337.014 180.053L338.731 179.477L339.589 184.052" fill="#151515"/>
<path d="M337.066 185.256L336.448 179.687L339.128 178.786L340.102 183.958L339.076 184.146L338.322 180.168L337.579 180.409L338.103 185.141L337.066 185.256Z" fill="#263238"/>
<path d="M324.43 186.921L323.279 180.912H326.137L327.288 186.062" fill="#151515"/>
<path d="M323.907 187.015L322.651 180.388H326.566L327.802 185.947L326.776 186.167L325.718 181.435H323.918L324.944 186.816L323.907 187.015Z" fill="#263238"/>
<path d="M321.269 120.947C321.269 120.947 315.71 127.228 313.491 129.835C311.271 132.441 311.271 160.194 311.271 164.287C311.271 168.381 309.052 179.456 312.758 181.676C316.464 183.895 339.055 183.162 341.275 179.456C343.494 175.751 344.97 131.3 344.604 127.249C344.237 123.197 340.887 119.921 338.323 118.727C335.758 117.534 321.269 120.947 321.269 120.947Z" fill="white"/>
<path d="M322.818 183.445C318.369 183.445 314.066 183.068 312.486 182.126C309.345 180.252 310.015 173.217 310.486 168.077C310.622 166.538 310.748 165.219 310.748 164.287C310.748 152.311 311.051 131.834 313.093 129.5C315.291 126.935 320.819 120.664 320.881 120.601L320.986 120.476H321.154C322.651 120.12 335.81 117.052 338.521 118.288C341.526 119.669 344.75 123.176 345.127 127.228C345.504 131.279 344.007 175.96 341.725 179.75C340.175 182.346 331.329 183.121 327.602 183.34C326.084 183.403 324.43 183.445 322.818 183.445ZM321.552 121.439C320.756 122.339 315.909 127.846 313.888 130.201C312.601 131.708 311.795 144.774 311.795 164.308C311.795 165.292 311.669 166.632 311.533 168.192C311.114 172.777 310.486 179.708 313.03 181.247C314.653 182.22 320.892 182.67 327.54 182.294C334.627 181.885 339.966 180.65 340.824 179.216C342.918 175.677 344.447 131.342 344.08 127.322C343.714 123.302 340.291 120.245 338.082 119.23C336.333 118.392 327.299 120.078 321.552 121.439Z" fill="#263238"/>
<mask id="mask0_137_852" style="mask-type:luminance" maskUnits="userSpaceOnUse" x="310" y="118" width="35" height="65">
<mask id="mask1_137_852" style="mask-type:luminance" maskUnits="userSpaceOnUse" x="310" y="118" width="35" height="65">
<path d="M321.269 120.947C321.269 120.947 315.71 127.228 313.491 129.835C311.271 132.441 311.271 160.194 311.271 164.287C311.271 168.381 309.052 179.456 312.758 181.676C316.464 183.895 339.055 183.162 341.275 179.456C343.494 175.751 344.97 131.3 344.604 127.249C344.237 123.197 340.887 119.921 338.323 118.727C335.758 117.534 321.269 120.947 321.269 120.947Z" fill="white"/>
</mask>
<g mask="url(#mask1_137_852)">
<path d="M322.818 183.445C318.369 183.445 314.066 183.068 312.486 182.126C309.345 180.252 310.015 173.217 310.486 168.077C310.622 166.538 310.748 165.219 310.748 164.287C310.748 152.311 311.051 131.834 313.093 129.5C315.291 126.935 320.819 120.664 320.881 120.601L320.986 120.475H321.154C322.651 120.12 335.81 117.052 338.521 118.288C341.526 119.669 344.75 123.176 345.127 127.228C345.504 131.279 344.007 175.96 341.725 179.75C340.175 182.346 331.329 183.121 327.602 183.34C326.084 183.403 324.43 183.445 322.818 183.445ZM321.552 121.439C320.756 122.339 315.909 127.845 313.888 130.201C312.601 131.708 311.795 144.773 311.795 164.308C311.795 165.292 311.669 166.632 311.533 168.192C311.114 172.777 310.486 179.708 313.03 181.247C314.653 182.22 320.892 182.67 327.54 182.293C334.627 181.885 339.966 180.65 340.824 179.216C342.918 175.677 344.447 131.342 344.08 127.322C343.714 123.302 340.291 120.245 338.082 119.23C336.333 118.392 327.299 120.078 321.552 121.439Z" fill="white"/>
</g>
</mask>
<g mask="url(#mask0_137_852)">
<path d="M338.302 118.727C337.996 118.6 337.669 118.529 337.338 118.518L335.737 119.355C335.737 119.355 340.175 122.789 340.971 128.034C341.717 132.988 341.65 138.03 340.772 142.962C339.966 148.417 327.048 142.962 329.476 144.983C331.905 147.003 340.992 150.437 341.379 152.248C341.767 154.059 336.941 157.095 335.098 157.294C333.256 157.493 336.312 161.534 338.134 164.968C339.956 168.401 339.338 173.238 335.098 176.483C330.858 179.729 321.154 181.362 316.945 181.529C315.574 181.582 314.715 181.885 314.475 182.293C320.934 183.728 339.254 182.796 341.243 179.477C343.473 175.771 344.939 131.321 344.572 127.27C344.206 123.218 340.887 119.921 338.302 118.727Z" fill="#151515"/>
</g>
<path d="M332.648 149.139C326.681 147.276 321.468 142.052 321.468 142.052C322.786 148.233 326.381 153.693 331.539 157.346" fill="white"/>
<path d="M331.539 157.734C331.456 157.737 331.374 157.711 331.308 157.661C326.086 153.929 322.439 148.387 321.08 142.114C321.065 142.033 321.078 141.949 321.116 141.875C321.154 141.801 321.215 141.742 321.29 141.706C321.361 141.666 321.444 141.651 321.525 141.662C321.607 141.673 321.682 141.711 321.74 141.769C321.74 141.821 326.974 147.003 332.774 148.762C332.871 148.796 332.952 148.866 332.999 148.957C333.046 149.049 333.055 149.156 333.025 149.254C333.012 149.304 332.989 149.35 332.957 149.39C332.926 149.431 332.886 149.464 332.841 149.489C332.796 149.513 332.746 149.528 332.695 149.533C332.644 149.538 332.592 149.532 332.544 149.516C328.696 148.132 325.163 145.997 322.148 143.235C323.672 148.801 327.065 153.673 331.758 157.032C331.8 157.061 331.836 157.097 331.864 157.14C331.891 157.182 331.91 157.23 331.919 157.279C331.928 157.329 331.926 157.38 331.915 157.43C331.904 157.479 331.882 157.525 331.853 157.566C331.818 157.618 331.771 157.66 331.717 157.689C331.662 157.719 331.601 157.734 331.539 157.734Z" fill="#263238"/>
<path d="M337.192 114.655L319.416 118.727L318.306 123.909L338.301 118.727L337.192 114.655Z" fill="white"/>
<path d="M317.615 124.632L318.976 118.288L337.6 114.027L338.982 119.104L317.615 124.632ZM319.856 119.167L318.997 123.197L337.663 118.35L336.825 115.273L319.856 119.167Z" fill="#263238"/>
<path d="M285.958 91.0793L281.174 88.3155C281.174 88.3155 279.321 88.0747 280.127 90.158L284.9 93.843" fill="white"/>
<path d="M284.89 94.3874C284.776 94.3898 284.665 94.3528 284.576 94.2827L279.792 90.5872C279.716 90.5314 279.658 90.4552 279.624 90.3674C279.459 90.0576 279.378 89.7101 279.389 89.3592C279.4 89.0084 279.503 88.6666 279.687 88.3679C279.884 88.1603 280.126 88.0019 280.395 87.9055C280.665 87.8091 280.953 87.7774 281.236 87.813C281.306 87.8227 281.373 87.8439 281.435 87.8758L286.22 90.65C286.286 90.6753 286.347 90.714 286.399 90.7638C286.45 90.8135 286.49 90.8732 286.518 90.9392C286.545 91.0052 286.559 91.0761 286.558 91.1476C286.557 91.219 286.541 91.2895 286.512 91.3546C286.482 91.4198 286.44 91.4782 286.387 91.5264C286.334 91.5745 286.272 91.6114 286.205 91.6346C286.137 91.6578 286.065 91.667 285.994 91.6615C285.923 91.656 285.854 91.636 285.79 91.6027L285.696 91.5503L281.069 88.8494C280.881 88.8312 280.693 88.8876 280.545 89.0064C280.441 89.1425 280.462 89.4566 280.598 89.8544L285.256 93.4557C285.311 93.496 285.357 93.5467 285.392 93.6049C285.427 93.6632 285.45 93.7278 285.46 93.795C285.469 93.8622 285.466 93.9306 285.449 93.9964C285.432 94.0621 285.402 94.1239 285.361 94.178C285.305 94.2484 285.233 94.3043 285.151 94.3407C285.069 94.3772 284.98 94.3932 284.89 94.3874Z" fill="#263238"/>
<path d="M285.256 98.2922C285.037 97.7199 284.706 97.1969 284.283 96.7533L283.393 95.7902L278.535 89.7706C278.535 89.7706 277.028 88.7238 277.363 90.9431L280.378 96.7952L275.018 91.7806C275.018 91.7806 273.971 90.9431 273.971 92.1052C273.971 93.2672 278.829 98.4702 278.829 98.4702L273.469 95.9577C273.469 95.9577 272.296 96.7952 273.134 97.6327C273.971 98.4702 278.494 100.145 278.494 100.145L274.474 99.9777C274.474 99.9777 273.301 101.025 274.139 101.318C274.976 101.611 279.666 102.658 279.666 102.658C280.264 103.161 280.944 103.558 281.676 103.83L282.849 106.008L287.35 103.746L285.256 98.2922Z" fill="white"/>
<path d="M282.901 106.489C282.807 106.488 282.715 106.463 282.634 106.415C282.553 106.367 282.486 106.299 282.44 106.217L281.394 104.207C280.699 103.943 280.052 103.568 279.478 103.097C278.536 102.888 274.83 102.051 274.034 101.768C273.879 101.712 273.74 101.617 273.632 101.493C273.524 101.368 273.45 101.218 273.416 101.056C273.312 100.386 274.013 99.7264 274.222 99.538C274.326 99.4551 274.456 99.4107 274.589 99.4124H275.573C274.605 99.0445 273.692 98.5442 272.861 97.9258C272.705 97.7842 272.583 97.6087 272.505 97.4127C272.427 97.2167 272.395 97.0055 272.411 96.7952C272.507 96.2546 272.812 95.7734 273.259 95.4552C273.333 95.3989 273.421 95.3643 273.514 95.3551C273.606 95.3458 273.699 95.3624 273.783 95.4028L276.787 96.8161C275.248 95.0469 273.542 92.9008 273.542 92.0214C273.516 91.8135 273.553 91.6026 273.648 91.416C273.743 91.2294 273.892 91.0756 274.076 90.9746C274.307 90.9099 274.552 90.9068 274.785 90.9655C275.018 91.0243 275.232 91.1429 275.405 91.3096L278.546 94.2827L276.913 91.1421C276.902 91.0902 276.902 91.0369 276.913 90.985C276.913 90.6396 276.704 89.5717 277.384 89.1321C277.628 89.0189 277.899 88.9747 278.166 89.0042C278.434 89.0338 278.688 89.1359 278.902 89.2996C278.945 89.3288 278.984 89.364 279.017 89.4042L283.875 95.4342C283.909 95.4794 283.937 95.5286 283.958 95.5808L284.723 96.4078C285.175 96.9026 285.53 97.4779 285.769 98.1038L287.916 103.516C287.966 103.637 287.968 103.773 287.921 103.896C287.875 104.019 287.783 104.119 287.664 104.176L283.163 106.447C283.079 106.477 282.99 106.492 282.901 106.489ZM274.453 100.815C275.322 101.119 278.588 101.862 279.823 102.103C279.956 102.13 280.073 102.209 280.148 102.323C280.679 102.747 281.277 103.079 281.917 103.307C282.031 103.35 282.127 103.431 282.189 103.537L283.121 105.275L286.743 103.453L284.764 98.4807C284.557 97.9765 284.263 97.5124 283.896 97.1092L282.995 96.1461C282.943 96.085 282.904 96.0137 282.88 95.9367L278.19 90.1266C278.088 90.0728 277.979 90.0341 277.866 90.0114C277.824 90.2504 277.824 90.4948 277.866 90.7338L280.839 96.523C280.895 96.6309 280.912 96.7556 280.885 96.8745C280.858 96.9935 280.79 97.099 280.692 97.1721C280.599 97.2524 280.48 97.2966 280.357 97.2966C280.234 97.2966 280.115 97.2524 280.022 97.1721L274.662 92.1471L274.536 92.0633C274.536 92.7124 277.018 95.6855 279.247 98.0724C279.296 98.121 279.335 98.1789 279.362 98.2427C279.389 98.3065 279.402 98.3749 279.402 98.444C279.402 98.5131 279.389 98.5815 279.362 98.6453C279.335 98.7091 279.296 98.767 279.247 98.8157C279.173 98.8893 279.078 98.938 278.975 98.9549C278.871 98.9718 278.765 98.956 278.672 98.9099L273.626 96.5439C273.52 96.6504 273.448 96.7848 273.416 96.9313C273.429 97.0434 273.481 97.1474 273.563 97.2244C275.192 98.211 276.927 99.0117 278.734 99.6113C278.851 99.6558 278.949 99.7399 279.01 99.8489C279.071 99.958 279.092 100.085 279.069 100.208C279.045 100.33 278.977 100.439 278.88 100.516C278.782 100.592 278.66 100.632 278.536 100.627L274.735 100.47C274.626 100.572 274.531 100.688 274.453 100.815Z" fill="#263238"/>
<path d="M336.92 138.189L302.614 146.375C301.239 146.615 299.824 146.372 298.608 145.687C297.392 145.002 296.451 143.917 295.945 142.617L282.901 105.976L287.402 103.715L302.226 127.898C302.656 128.685 303.328 129.314 304.142 129.691C304.956 130.068 305.87 130.173 306.749 129.992L327.278 124.181" fill="white"/>
<path d="M301.598 146.93C300.273 146.93 298.979 146.531 297.884 145.784C296.79 145.037 295.946 143.977 295.464 142.743L282.252 105.735L287.591 103.045L302.677 127.647C303.044 128.348 303.63 128.912 304.346 129.252C305.061 129.591 305.868 129.69 306.644 129.531L327.131 123.71L327.414 124.757L306.885 130.567C305.888 130.773 304.852 130.651 303.93 130.222C303.008 129.792 302.249 129.076 301.766 128.181L287.204 104.427L283.55 106.269L296.437 142.376C296.901 143.56 297.76 144.548 298.868 145.172C299.977 145.796 301.266 146.017 302.519 145.799L336.794 137.613L337.035 138.66L302.739 146.857C302.362 146.912 301.98 146.937 301.598 146.93Z" fill="#263238"/>
<mask id="mask2_137_852" style="mask-type:luminance" maskUnits="userSpaceOnUse" x="282" y="103" width="55" height="44">
<mask id="mask3_137_852" style="mask-type:luminance" maskUnits="userSpaceOnUse" x="282" y="103" width="55" height="44">
<path d="M336.92 138.189L302.614 146.375C301.239 146.615 299.824 146.372 298.608 145.687C297.392 145.002 296.451 143.917 295.945 142.617L282.901 105.976L287.402 103.715L302.226 127.898C302.656 128.685 303.328 129.314 304.142 129.691C304.956 130.068 305.87 130.173 306.749 129.992L327.278 124.181" fill="white"/>
</mask>
<g mask="url(#mask3_137_852)">
<path d="M301.598 146.93C300.273 146.93 298.979 146.531 297.884 145.784C296.79 145.037 295.946 143.977 295.464 142.743L282.252 105.736L287.591 103.045L302.677 127.647C303.044 128.348 303.63 128.912 304.346 129.252C305.061 129.592 305.868 129.69 306.644 129.531L327.131 123.71L327.414 124.757L306.885 130.567C305.888 130.773 304.852 130.652 303.93 130.222C303.008 129.792 302.249 129.076 301.766 128.181L287.204 104.427L283.55 106.269L296.437 142.376C296.901 143.56 297.76 144.548 298.868 145.172C299.977 145.796 301.266 146.017 302.519 145.799L336.794 137.613L337.035 138.66L302.739 146.857C302.362 146.912 301.98 146.937 301.598 146.93Z" fill="white"/>
</g>
</mask>
<g mask="url(#mask2_137_852)">
<path d="M287.717 120.57C287.717 120.57 298.405 140.743 302.446 142.156C306.487 143.57 314.956 140.544 314.956 140.544C314.956 140.544 303.252 139.497 307.283 139.131C311.313 138.764 315.961 139.738 323.635 137.927C331.308 136.116 335.15 132.693 333.12 136.105C331.089 139.518 319.793 141.759 315.762 143.172C311.732 144.585 302.844 146.804 300.227 146.396C299.4 146.214 298.625 145.847 297.959 145.323C297.294 144.799 296.756 144.132 296.385 143.371L287.717 120.57Z" fill="#151515"/>
</g>
<path d="M289.753 107.8L284.53 110.416L284.881 111.118L290.104 108.502L289.753 107.8Z" fill="#263238"/>
<path d="M340.552 97.528C341.038 97.4485 341.537 97.5291 341.973 97.7576C342.409 97.986 342.759 98.35 342.971 98.7947C343.258 99.3813 343.395 100.031 343.367 100.683C343.34 101.336 343.15 101.972 342.814 102.532C341.181 105.4 337.297 106.416 337.297 106.416C337.297 106.416 333.612 111.734 329.968 113.168C326.325 114.603 320.4 114.927 318.715 107.442C317.982 104.155 320.149 90.6919 320.149 90.6919C320.214 89.7104 320.473 88.7515 320.912 87.871C321.35 86.9904 321.959 86.2057 322.703 85.5622C325.132 83.7092 330.785 83.3638 334.02 84.4002C337.255 85.4366 339.254 88.4411 340.144 90.7547C340.718 92.462 340.953 94.265 340.835 96.0624L340.49 97.5699L340.552 97.528Z" fill="white"/>
<path d="M325.833 114.508C324.581 114.529 323.343 114.238 322.232 113.66C320.201 112.613 318.83 110.52 318.17 107.557C317.416 104.207 319.5 91.1421 319.594 90.5872C319.661 89.5378 319.939 88.5127 320.412 87.5736C320.885 86.6345 321.544 85.8007 322.347 85.1225C324.964 83.1335 330.837 82.8194 334.145 83.8872C338.061 85.1435 339.956 88.9541 340.584 90.5349C341.192 92.3177 341.441 94.2036 341.317 96.0833L341.118 96.9941C341.611 97.0256 342.087 97.1889 342.496 97.467C342.904 97.745 343.231 98.1276 343.442 98.5749C343.762 99.2324 343.914 99.959 343.885 100.69C343.855 101.42 343.646 102.132 343.274 102.762C341.735 105.442 338.448 106.583 337.611 106.845C336.962 107.756 333.591 112.278 330.115 113.629C328.752 114.176 327.302 114.474 325.833 114.508ZM329.665 84.3269C327.121 84.3269 324.43 84.8503 322.986 85.9496C321.603 87.1555 320.756 88.8614 320.63 90.6919C320.63 90.8803 318.474 104.176 319.186 107.327C319.782 109.986 320.976 111.807 322.724 112.739C325.341 114.131 328.503 113.168 329.738 112.687C333.224 111.326 336.825 106.175 336.867 106.123L336.972 105.966L337.16 105.913C337.16 105.913 340.856 104.867 342.395 102.27C342.694 101.784 342.863 101.23 342.887 100.66C342.911 100.09 342.788 99.5237 342.531 99.0146C342.363 98.6743 342.09 98.3971 341.753 98.2236C341.416 98.0502 341.031 97.9899 340.657 98.0514L339.799 98.1875L340.322 95.9263C340.409 94.2346 340.182 92.5414 339.652 90.9327C339.066 89.488 337.349 86.0019 333.852 84.8817C332.493 84.4836 331.081 84.2965 329.665 84.3269Z" fill="#263238"/>
<path d="M328.419 97.5175C328.294 98.0514 328.419 98.5644 328.67 98.5644C328.922 98.5644 329.257 98.2503 329.382 97.7164C329.508 97.1825 329.382 96.6695 329.131 96.6695C328.88 96.6695 328.545 96.9836 328.419 97.5175Z" fill="#263238"/>
<path d="M322.735 96.4497C322.609 96.9732 322.735 97.4966 322.986 97.4966C323.237 97.4966 323.572 97.1825 323.698 96.6591C323.823 96.1357 323.698 95.6122 323.446 95.6122C323.195 95.6122 322.86 95.9158 322.735 96.4497Z" fill="#263238"/>
<path d="M331.979 95.6227C331.895 95.6228 331.814 95.5992 331.743 95.5547C331.673 95.5103 331.616 95.4467 331.581 95.3714C331.298 94.8872 330.899 94.4808 330.42 94.1885C329.942 93.8961 329.398 93.7271 328.838 93.6964C328.779 93.6924 328.721 93.6768 328.668 93.6504C328.615 93.624 328.567 93.5874 328.528 93.5427C328.49 93.4979 328.46 93.4459 328.441 93.3897C328.422 93.3334 328.415 93.274 328.419 93.2149C328.432 93.0955 328.491 92.9857 328.582 92.9078C328.673 92.83 328.791 92.79 328.911 92.7961C329.627 92.8383 330.32 93.0599 330.927 93.4404C331.535 93.8209 332.037 94.3482 332.387 94.9736C332.414 95.0245 332.432 95.0802 332.438 95.1378C332.444 95.1953 332.438 95.2535 332.422 95.3089C332.405 95.3643 332.378 95.416 332.341 95.4608C332.305 95.5057 332.26 95.5429 332.209 95.5703C332.138 95.609 332.059 95.6271 331.979 95.6227Z" fill="#263238"/>
<path d="M321.321 94.4083C321.199 94.4077 321.083 94.3588 320.997 94.2722C320.955 94.2304 320.921 94.1806 320.898 94.1258C320.876 94.0711 320.864 94.0123 320.864 93.9529C320.864 93.8936 320.876 93.8348 320.898 93.78C320.921 93.7252 320.955 93.6755 320.997 93.6336C321.461 93.1545 322.063 92.8308 322.719 92.7071C323.375 92.5834 324.053 92.6657 324.661 92.9427C324.712 92.972 324.758 93.0113 324.794 93.0584C324.831 93.1054 324.858 93.1591 324.873 93.2166C324.889 93.274 324.893 93.334 324.885 93.393C324.877 93.452 324.858 93.5089 324.828 93.5604C324.775 93.657 324.687 93.73 324.582 93.7649C324.478 93.7999 324.364 93.7941 324.263 93.7488C323.819 93.5583 323.328 93.5073 322.855 93.6027C322.382 93.6981 321.949 93.9353 321.614 94.2827C321.536 94.3598 321.431 94.4046 321.321 94.4083Z" fill="#263238"/>
<path d="M325.142 102.05C324.754 102.041 324.378 101.912 324.066 101.682C323.753 101.452 323.518 101.131 323.394 100.763C323.216 100.061 323.687 99.5694 324.106 99.1402C324.438 98.8661 324.685 98.5029 324.818 98.0933C325.038 97.0464 325.31 95.1202 325.31 95.1097C325.318 95.0506 325.338 94.9937 325.368 94.9422C325.398 94.8908 325.439 94.8458 325.486 94.8098C325.534 94.7738 325.588 94.7476 325.646 94.7326C325.704 94.7176 325.764 94.7141 325.823 94.7224C325.882 94.7306 325.939 94.7504 325.99 94.7807C326.042 94.8109 326.087 94.851 326.123 94.8986C326.159 94.9463 326.185 95.0005 326.2 95.0583C326.215 95.1161 326.218 95.1762 326.21 95.2353C326.21 95.3191 325.928 97.1616 325.697 98.2713C325.542 98.854 325.213 99.376 324.755 99.7683C324.389 100.145 324.221 100.334 324.263 100.522C324.399 101.056 325.205 101.129 325.205 101.14C325.264 101.144 325.322 101.159 325.375 101.186C325.428 101.212 325.476 101.249 325.515 101.293C325.554 101.338 325.583 101.39 325.602 101.446C325.621 101.503 325.628 101.562 325.624 101.621C325.621 101.68 325.607 101.738 325.582 101.792C325.557 101.846 325.521 101.894 325.477 101.934C325.434 101.973 325.383 102.004 325.327 102.024C325.271 102.044 325.212 102.053 325.153 102.05H325.142Z" fill="#263238"/>
<path d="M327.445 105.736C327.009 105.736 326.575 105.673 326.158 105.547C326.101 105.529 326.049 105.5 326.004 105.462C325.959 105.424 325.921 105.378 325.894 105.325C325.867 105.273 325.85 105.215 325.845 105.156C325.84 105.097 325.847 105.038 325.865 104.982C325.903 104.867 325.985 104.772 326.092 104.717C326.2 104.662 326.325 104.652 326.44 104.689C326.844 104.818 327.27 104.86 327.691 104.811C328.111 104.762 328.517 104.624 328.88 104.406C328.927 104.37 328.981 104.344 329.039 104.329C329.096 104.314 329.156 104.311 329.215 104.319C329.274 104.328 329.33 104.347 329.381 104.377C329.432 104.408 329.477 104.448 329.513 104.495C329.549 104.542 329.575 104.596 329.59 104.654C329.604 104.711 329.608 104.771 329.6 104.83C329.591 104.889 329.572 104.945 329.541 104.997C329.511 105.048 329.471 105.093 329.424 105.128C328.846 105.536 328.153 105.748 327.445 105.736Z" fill="#263238"/>
<path d="M336.888 81.2596C336.888 81.2596 332.387 77.3652 328.084 77.3652C323.781 77.3652 320.316 79.8254 317.615 80.0243C314.914 80.2232 313.114 77.7735 311.47 81.0711C309.826 84.3688 315.972 89.8649 320.065 90.6919C324.158 91.519 329.885 90.2836 331.528 90.0743C333.093 89.9591 334.664 89.9591 336.229 90.0743C336.229 90.0743 335.004 93.9582 336.229 95.1935C336.663 95.5356 337.016 95.9689 337.264 96.4628C337.512 96.9567 337.648 97.4991 337.663 98.0515C337.737 98.9463 337.873 99.8348 338.071 100.711L339.296 101.119L339.914 98.868C341.572 97.099 342.704 94.9017 343.18 92.524C343.798 88.8494 340.73 85.1958 340.73 85.1958L336.888 81.2596Z" fill="#263238"/>
<path d="M324.41 89.6031C322.804 89.6034 321.201 89.4774 319.615 89.2263C319.558 89.216 319.508 89.184 319.475 89.137C319.441 89.09 319.428 89.0319 319.437 88.975C319.439 88.9465 319.448 88.9187 319.461 88.8935C319.475 88.8684 319.494 88.8462 319.516 88.8286C319.539 88.8109 319.565 88.7981 319.593 88.7908C319.62 88.7836 319.649 88.7822 319.678 88.7866C319.74 88.7866 326.671 90.0742 332.02 87.8549C333.475 87.2581 334.303 86.452 334.491 85.447C334.857 83.5208 332.732 81.448 332.711 81.427C332.689 81.4064 332.671 81.3814 332.658 81.3534C332.646 81.3255 332.64 81.2953 332.64 81.2648C332.64 81.2343 332.646 81.2041 332.658 81.1761C332.671 81.1482 332.689 81.1231 332.711 81.1025C332.756 81.0621 332.813 81.0396 332.874 81.0396C332.934 81.0396 332.991 81.0621 333.036 81.1025C333.13 81.1863 335.36 83.3638 334.941 85.5308C334.762 86.1856 334.417 86.7827 333.938 87.2635C333.459 87.7444 332.863 88.0925 332.209 88.2736C329.717 89.2072 327.07 89.6584 324.41 89.6031Z" fill="white"/>
<path d="M335.506 90.1685C335.45 90.169 335.396 90.1491 335.354 90.1125C335.311 90.0759 335.284 90.0251 335.276 89.9696C335.27 89.9101 335.288 89.8506 335.325 89.8037C335.362 89.7568 335.416 89.7262 335.475 89.7183C335.548 89.7183 337.244 89.4985 338.124 87.0383C338.233 86.6039 338.242 86.1504 338.152 85.7117C338.061 85.273 337.873 84.8605 337.6 84.5049C336.699 83.0867 335.458 81.917 333.988 81.1025C333.927 81.1025 333.869 81.0783 333.826 81.0351C333.782 80.9919 333.758 80.9333 333.758 80.8722C333.758 80.8139 333.781 80.758 333.822 80.7168C333.864 80.6755 333.92 80.6524 333.978 80.6524C334.459 80.6524 336.501 82.1389 337.715 83.8663C338.113 84.31 338.397 84.8444 338.541 85.4228C338.685 86.0013 338.686 86.6062 338.542 87.1849C337.558 89.9382 335.601 90.1685 335.517 90.1685H335.506Z" fill="white"/>
</svg>
