<svg width="136" height="36" viewBox="0 0 136 36" fill="none" xmlns="http://www.w3.org/2000/svg">
<path fill-rule="evenodd" clip-rule="evenodd" d="M90.335 19.852V29.0273L94.3387 24.8567L98.6761 29.0273V19.852H90.335ZM91.8363 20.8529V25.1903L94.2553 22.5212L97.0913 25.1903V20.8529H91.8363Z" fill="#151515"/>
<path d="M90.335 29.0273H90.2515V29.2346L90.3951 29.0851L90.335 29.0273ZM90.335 19.852V19.7686H90.2515V19.852H90.335ZM94.3387 24.8567L94.3965 24.7966L94.3364 24.7387L94.2786 24.7989L94.3387 24.8567ZM98.6761 29.0273L98.6183 29.0874L98.7595 29.2232V29.0273H98.6761ZM98.6761 19.852H98.7595V19.7686H98.6761V19.852ZM91.8363 25.1903H91.7529V25.4066L91.8981 25.2464L91.8363 25.1903ZM91.8363 20.8529V20.7695H91.7529V20.8529H91.8363ZM94.2553 22.5212L94.3124 22.4604L94.2505 22.4022L94.1935 22.4652L94.2553 22.5212ZM97.0913 25.1903L97.0341 25.2511L97.1747 25.3834V25.1903H97.0913ZM97.0913 20.8529H97.1747V20.7695H97.0913V20.8529ZM90.4184 29.0273V19.852H90.2515V29.0273H90.4184ZM94.2786 24.7989L90.2748 28.9695L90.3951 29.0851L94.3989 24.9145L94.2786 24.7989ZM98.7339 28.9672L94.3965 24.7966L94.2809 24.9168L98.6183 29.0874L98.7339 28.9672ZM98.5927 19.852V29.0273H98.7595V19.852H98.5927ZM90.335 19.9354H98.6761V19.7686H90.335V19.9354ZM91.9197 25.1903V20.8529H91.7529V25.1903H91.9197ZM94.1935 22.4652L91.7745 25.1343L91.8981 25.2464L94.3171 22.5772L94.1935 22.4652ZM97.1484 25.1296L94.3124 22.4604L94.1981 22.5819L97.0341 25.2511L97.1484 25.1296ZM97.0079 20.8529V25.1903H97.1747V20.8529H97.0079ZM91.8363 20.9363H97.0913V20.7695H91.8363V20.9363Z" fill="black"/>
<path fill-rule="evenodd" clip-rule="evenodd" d="M94.5888 21.3534C98.3663 21.3534 101.429 18.2911 101.429 14.5136C101.429 10.7361 98.3663 7.67388 94.5888 7.67388C90.8113 7.67388 87.749 10.7361 87.749 14.5136C87.749 18.2911 90.8113 21.3534 94.5888 21.3534ZM94.5054 19.5184C97.3155 19.5184 99.5935 17.2403 99.5935 14.4302C99.5935 11.6201 97.3155 9.34212 94.5054 9.34212C91.6953 9.34212 89.4172 11.6201 89.4172 14.4302C89.4172 17.2403 91.6953 19.5184 94.5054 19.5184Z" fill="#151515"/>
<circle cx="94.5053" cy="14.4302" r="3.41988" fill="#A6AEBB"/>
<circle cx="94.4221" cy="14.3468" r="1.66824" fill="#151515"/>
<path d="M1.28694 17.5548C1.28694 15.5197 1.74585 13.694 2.66367 12.0779C3.58148 10.4418 4.82852 9.16479 6.40477 8.24697C8.00097 7.32916 9.76677 6.87025 11.7022 6.87025C13.9768 6.87025 15.962 7.41894 17.658 8.51633C19.354 9.61372 20.591 11.17 21.3692 13.1852H18.1069C17.5283 11.9282 16.6903 10.9605 15.5929 10.2821C14.5155 9.60375 13.2186 9.26455 11.7022 9.26455C10.2456 9.26455 8.93874 9.60375 7.7815 10.2821C6.62425 10.9605 5.71641 11.9282 5.05797 13.1852C4.39954 14.4223 4.07032 15.8788 4.07032 17.5548C4.07032 19.2109 4.39954 20.6674 5.05797 21.9244C5.71641 23.1615 6.62425 24.1192 7.7815 24.7976C8.93874 25.476 10.2456 25.8152 11.7022 25.8152C13.2186 25.8152 14.5155 25.486 15.5929 24.8275C16.6903 24.1492 17.5283 23.1815 18.1069 21.9244H21.3692C20.591 23.9197 19.354 25.466 17.658 26.5634C15.962 27.6409 13.9768 28.1796 11.7022 28.1796C9.76677 28.1796 8.00097 27.7306 6.40477 26.8328C4.82852 25.915 3.58148 24.648 2.66367 23.0318C1.74585 21.4157 1.28694 19.59 1.28694 17.5548ZM28.1469 9.35434V16.3278H35.7488V18.5724H28.1469V25.7553H36.6467V28H25.4234V7.10968H36.6467V9.35434H28.1469ZM51.7516 28L46.7834 19.4703H43.4913V28H40.7677V7.13961H47.5017C49.078 7.13961 50.4048 7.40897 51.4823 7.94769C52.5796 8.48641 53.3977 9.21467 53.9364 10.1325C54.4751 11.0503 54.7445 12.0978 54.7445 13.275C54.7445 14.7116 54.3255 15.9786 53.4875 17.076C52.6694 18.1734 51.4324 18.9016 49.7763 19.2608L55.0139 28H51.7516ZM43.4913 17.2855H47.5017C48.9782 17.2855 50.0856 16.9263 50.8238 16.208C51.5621 15.4698 51.9312 14.4921 51.9312 13.275C51.9312 12.038 51.5621 11.0802 50.8238 10.4019C50.1055 9.72346 48.9982 9.38427 47.5017 9.38427H43.4913V17.2855ZM71.8159 7.13961V9.35434H66.1294V28H63.4059V9.35434H57.6894V7.13961H71.8159ZM77.8919 25.7853H85.1945V28H75.1684V7.13961H77.8919V25.7853Z" fill="#151515"/>
<path d="M117.36 7.13961V9.35434H108.292V16.3876H115.654V18.6023H108.292V28H105.568V7.13961H117.36ZM135.255 7.13961L128.461 20.1287V28H125.737V20.1287L118.914 7.13961H121.936L127.084 17.7045L132.232 7.13961H135.255Z" fill="#151515"/>
</svg>
